<?xml version="1.0" encoding="UTF-8" standalone="no"?>
<svg
   xmlns:dc="http://purl.org/dc/elements/1.1/"
   xmlns:cc="http://creativecommons.org/ns#"
   xmlns:rdf="http://www.w3.org/1999/02/22-rdf-syntax-ns#"
   xmlns:svg="http://www.w3.org/2000/svg"
   xmlns="http://www.w3.org/2000/svg"
   xmlns:sodipodi="http://sodipodi.sourceforge.net/DTD/sodipodi-0.dtd"
   xmlns:inkscape="http://www.inkscape.org/namespaces/inkscape"
   width="20.32mm"
   height="128.5mm"
   viewBox="0 0 20.320001 128.50002"
   version="1.1"
   id="svg8"
   inkscape:version="1.0.2 (e86c8708, 2021-01-15)"
   sodipodi:docname="Agni.svg">
  <defs
     id="defs2" />
  <sodipodi:namedview
     id="base"
     pagecolor="#ffffff"
     bordercolor="#666666"
     borderopacity="1.0"
     inkscape:pageopacity="0.0"
     inkscape:pageshadow="2"
     inkscape:zoom="2.4329258"
     inkscape:cx="42.01288"
     inkscape:cy="196.96694"
     inkscape:document-units="mm"
     inkscape:current-layer="layer1"
     showgrid="false"
     units="mm"
     inkscape:snap-bbox="true"
     inkscape:snap-page="true"
     inkscape:bbox-nodes="false"
     inkscape:snap-bbox-edge-midpoints="false"
     inkscape:window-width="2048"
     inkscape:window-height="1235"
     inkscape:window-x="0"
     inkscape:window-y="23"
     inkscape:window-maximized="1"
     inkscape:snap-bbox-midpoints="true"
     inkscape:snap-nodes="false"
     inkscape:document-rotation="0" />
  <metadata
     id="metadata5">
    <rdf:RDF>
      <cc:Work
         rdf:about="">
        <dc:format>image/svg+xml</dc:format>
        <dc:type
           rdf:resource="http://purl.org/dc/dcmitype/StillImage" />
        <dc:title />
      </cc:Work>
    </rdf:RDF>
  </metadata>
  <g
     inkscape:label="Layer 1"
     inkscape:groupmode="layer"
     id="layer1"
     transform="translate(0,-168.49998)"
     style="display:inline">
    <rect
       style="display:inline;opacity:1;vector-effect:none;fill:#333333;fill-opacity:1;fill-rule:evenodd;stroke:none;stroke-width:0.540606;stroke-linecap:butt;stroke-linejoin:miter;stroke-miterlimit:4;stroke-dasharray:none;stroke-dashoffset:0;stroke-opacity:1;paint-order:normal"
       id="rect420"
       width="21.125566"
       height="128.5"
       x="5.9211732e-17"
       y="168.49997" />
    <g
       aria-label="Pitch"
       style="font-style:normal;font-variant:normal;font-weight:300;font-stretch:normal;font-size:4.93889px;line-height:6.61458px;font-family:'Gotham Rounded';-inkscape-font-specification:'Gotham Rounded Light';font-variant-ligatures:normal;font-variant-caps:normal;font-variant-numeric:normal;font-feature-settings:normal;text-align:center;letter-spacing:0px;word-spacing:0px;writing-mode:lr-tb;text-anchor:middle;display:inline;fill:#000000;fill-opacity:1;stroke:none;stroke-width:0.264583px;stroke-linecap:butt;stroke-linejoin:miter;stroke-opacity:1"
       id="text4944"
       transform="translate(0,10.583334)" />
    <g
       aria-label="Scribbletune"
       id="text1194"
       style="font-style:normal;font-weight:normal;font-size:4.58611px;line-height:1.25;font-family:sans-serif;display:inline;fill:#ffffff;fill-opacity:1;stroke:none;stroke-width:0.264583"
       transform="matrix(0.89786642,0,0,0.83523248,-3.5234842,42.729251)">
      <path
         d="m 5.6568659,293.45741 h 0.3224609 v 0.0157 q 0,0.20602 0.1433159,0.28663 0.1455552,0.0806 0.3851616,0.0806 0.2104953,0 0.3515719,-0.12316 0.1433159,-0.12316 0.1433159,-0.32246 0,-0.16347 -0.1231621,-0.26648 -0.1209228,-0.10077 -0.3717257,-0.20378 l -0.1276408,-0.0515 q -0.2619994,-0.10749 -0.3918795,-0.21274 -0.1298801,-0.10748 -0.1948201,-0.23513 -0.062701,-0.12988 -0.062701,-0.28887 0,-0.27991 0.1970594,-0.47249 0.1992987,-0.19258 0.6202893,-0.19258 0.3874009,0 0.5441527,0.14331 0.1567518,0.14332 0.1567518,0.33366 v 0.0179 H 6.9287949 v -0.0179 q 0,-0.0605 -0.049265,-0.11868 -0.049265,-0.0582 -0.1455552,-0.0851 -0.09629,-0.0269 -0.2127346,-0.0269 -0.2373671,0 -0.351572,0.11869 -0.1119655,0.11868 -0.1119655,0.27095 0,0.10077 0.053743,0.19034 0.053743,0.0896 0.1477946,0.15004 0.094051,0.0582 0.3179822,0.15675 l 0.1522732,0.0649 q 0.3627685,0.15675 0.4836913,0.33142 0.1209229,0.17242 0.1209229,0.37396 0,0.18587 -0.09853,0.36053 -0.09853,0.17243 -0.2731961,0.262 -0.1746663,0.0896 -0.4657768,0.0896 -0.2754353,0 -0.4612982,-0.0672 -0.1858628,-0.0649 -0.2821532,-0.21497 -0.09629,-0.15003 -0.09629,-0.33142 z"
         style="font-style:normal;font-variant:normal;font-weight:normal;font-stretch:normal;font-size:4.58611px;font-family:'Apple Symbols';-inkscape-font-specification:'Apple Symbols';fill:#faed1f;fill-opacity:1;stroke-width:0.264583"
         id="path1809" />
      <path
         d="m 8.79862,293.55594 h 0.2978285 v 0.0157 q 0,0.12092 -0.091812,0.24185 -0.089573,0.11868 -0.2351277,0.18362 -0.143316,0.0649 -0.3493326,0.0649 -0.3918796,0 -0.6046142,-0.24856 -0.2127346,-0.24857 -0.2127346,-0.68971 0,-0.43891 0.2127346,-0.68747 0.2127346,-0.24856 0.6046142,-0.24856 0.2060166,0 0.3493326,0.0649 0.1455552,0.0627 0.2351277,0.1769 0.091812,0.11197 0.091812,0.24857 v 0.0157 H 8.79862 v -0.0157 q 0.00448,-0.0985 -0.085094,-0.17019 -0.089573,-0.0739 -0.2776747,-0.0739 -0.2216918,0 -0.373965,0.16347 -0.1500339,0.16347 -0.1500339,0.52624 0,0.36501 0.1500339,0.52848 0.1522732,0.16347 0.373965,0.16347 0.1881022,0 0.2754354,-0.0717 0.087333,-0.0739 0.087333,-0.17243 z"
         style="font-style:normal;font-variant:normal;font-weight:normal;font-stretch:normal;font-size:4.58611px;font-family:'Apple Symbols';-inkscape-font-specification:'Apple Symbols';fill:#faed1f;fill-opacity:1;stroke-width:0.264583"
         id="path1811" />
      <path
         d="M 9.7570454,294.01276 H 9.4614562 v -1.77578 h 0.2955892 v 0.31351 q 0.073897,-0.1366 0.1589911,-0.2105 0.087333,-0.0739 0.1858625,-0.11196 0.09853,-0.0403 0.199299,-0.0403 0.09181,0 0.158991,0.0269 v 0.30678 q -0.105247,-0.0515 -0.221692,-0.0515 -0.167948,0 -0.3246998,0.1478 -0.1567518,0.14555 -0.1567518,0.51728 z"
         style="font-style:normal;font-variant:normal;font-weight:normal;font-stretch:normal;font-size:4.58611px;font-family:'Apple Symbols';-inkscape-font-specification:'Apple Symbols';fill:#faed1f;fill-opacity:1;stroke-width:0.264583"
         id="path1813" />
      <path
         d="m 10.724428,292.23698 h 0.295589 v 1.77578 h -0.295589 z m 0,-0.39412 v -0.29783 h 0.295589 v 0.29783 z"
         style="font-style:normal;font-variant:normal;font-weight:normal;font-stretch:normal;font-size:4.58611px;font-family:'Apple Symbols';-inkscape-font-specification:'Apple Symbols';fill:#faed1f;fill-opacity:1;stroke-width:0.264583"
         id="path1815" />
      <path
         d="m 11.767947,294.01276 h -0.295589 q 0.0067,-0.0873 0.0112,-0.21274 0.0067,-0.1254 0.009,-0.20378 0.0045,-0.0806 0.0045,-0.10748 v -2.04225 h 0.29559 v 1.0995 q 0.09629,-0.15228 0.181384,-0.21946 0.08509,-0.0694 0.185863,-0.103 0.103008,-0.0358 0.212734,-0.0358 0.201538,0 0.369487,0.11196 0.170187,0.10973 0.264238,0.32918 0.09405,0.21945 0.09405,0.49265 0,0.40532 -0.19706,0.67403 -0.19482,0.26648 -0.544153,0.26648 -0.114204,0 -0.214973,-0.0336 -0.10077,-0.0314 -0.179145,-0.0963 -0.07838,-0.0649 -0.172427,-0.22841 l -0.009,0.12764 q -0.0067,0.10749 -0.01567,0.18139 z m 0.02463,-0.88677 q 0,0.30231 0.12988,0.49713 0.132119,0.19258 0.367247,0.19258 0.214974,0 0.35829,-0.17019 0.143316,-0.17243 0.143316,-0.51504 0,-0.3986 -0.147795,-0.55311 -0.145555,-0.15675 -0.347093,-0.15675 -0.141077,0 -0.264239,0.0851 -0.120923,0.0851 -0.181384,0.25304 -0.05822,0.16795 -0.05822,0.36725 z"
         style="font-style:normal;font-variant:normal;font-weight:normal;font-stretch:normal;font-size:4.58611px;font-family:'Apple Symbols';-inkscape-font-specification:'Apple Symbols';fill:#faed1f;fill-opacity:1;stroke-width:0.264583"
         id="path1817" />
      <path
         d="m 13.756456,294.01276 h -0.295589 q 0.0067,-0.0873 0.0112,-0.21274 0.0067,-0.1254 0.009,-0.20378 0.0045,-0.0806 0.0045,-0.10748 v -2.04225 h 0.295589 v 1.0995 q 0.09629,-0.15228 0.181385,-0.21946 0.08509,-0.0694 0.185862,-0.103 0.103009,-0.0358 0.212735,-0.0358 0.201538,0 0.369486,0.11196 0.170188,0.10973 0.264239,0.32918 0.09405,0.21945 0.09405,0.49265 0,0.40532 -0.197059,0.67403 -0.19482,0.26648 -0.544153,0.26648 -0.114205,0 -0.214974,-0.0336 -0.100769,-0.0314 -0.179145,-0.0963 -0.07838,-0.0649 -0.172427,-0.22841 l -0.009,0.12764 q -0.0067,0.10749 -0.01567,0.18139 z m 0.02463,-0.88677 q 0,0.30231 0.12988,0.49713 0.13212,0.19258 0.367247,0.19258 0.214974,0 0.35829,-0.17019 0.143316,-0.17243 0.143316,-0.51504 0,-0.3986 -0.147794,-0.55311 -0.145556,-0.15675 -0.347094,-0.15675 -0.141076,0 -0.264238,0.0851 -0.120923,0.0851 -0.181385,0.25304 -0.05822,0.16795 -0.05822,0.36725 z"
         style="font-style:normal;font-variant:normal;font-weight:normal;font-stretch:normal;font-size:4.58611px;font-family:'Apple Symbols';-inkscape-font-specification:'Apple Symbols';fill:#faed1f;fill-opacity:1;stroke-width:0.264583"
         id="path1819" />
      <path
         d="m 15.767358,294.01276 h -0.295589 v -2.56625 h 0.295589 z"
         style="font-style:normal;font-variant:normal;font-weight:normal;font-stretch:normal;font-size:4.58611px;font-family:'Apple Symbols';-inkscape-font-specification:'Apple Symbols';fill:#faed1f;fill-opacity:1;stroke-width:0.264583"
         id="path1821" />
      <path
         d="m 17.404294,293.55594 h 0.295589 v 0.0157 q 0,0.11869 -0.09405,0.24185 -0.09405,0.12092 -0.248563,0.18586 -0.154513,0.0627 -0.353812,0.0627 -0.405315,0 -0.627007,-0.262 -0.219452,-0.262 -0.219452,-0.66283 0,-0.4098 0.232888,-0.67852 0.232888,-0.27095 0.600135,-0.27095 0.201538,0 0.365008,0.0873 0.165709,0.0873 0.25976,0.2732 0.09629,0.18362 0.09629,0.51504 v 0.0985 h -1.260733 q 0,0.28439 0.152274,0.47025 0.154512,0.18363 0.425469,0.18363 0.19482,0 0.284392,-0.0739 0.09181,-0.0761 0.09181,-0.17019 z m -0.936032,-0.61581 h 0.958425 v -0.0358 q 0,-0.12317 -0.06046,-0.23961 -0.05822,-0.11868 -0.16347,-0.17467 -0.105248,-0.056 -0.244085,-0.056 -0.165709,0 -0.306786,0.13436 -0.138837,0.13212 -0.183623,0.37173 z"
         style="font-style:normal;font-variant:normal;font-weight:normal;font-stretch:normal;font-size:4.58611px;font-family:'Apple Symbols';-inkscape-font-specification:'Apple Symbols';fill:#faed1f;fill-opacity:1;stroke-width:0.264583"
         id="path1823" />
      <path
         d="m 19.200222,293.76195 v 0.24857 q -0.214974,0.0515 -0.329179,0.0515 -0.165709,0 -0.300067,-0.0672 -0.13212,-0.0672 -0.201539,-0.19258 -0.06942,-0.12764 -0.06942,-0.40531 v -0.91364 h -0.306786 v -0.24633 h 0.306786 v -0.42099 h 0.297828 v 0.42099 h 0.517281 v 0.24633 h -0.517281 v 0.82854 q 0,0.23513 0.03583,0.32694 0.03583,0.0918 0.114205,0.13436 0.07838,0.0426 0.188102,0.0426 0.08733,0 0.264239,-0.0537 z"
         style="font-style:normal;font-variant:normal;font-weight:normal;font-stretch:normal;font-size:4.58611px;font-family:'Apple Symbols';-inkscape-font-specification:'Apple Symbols';fill:#faed1f;fill-opacity:1;stroke-width:0.264583"
         id="path1825" />
      <path
         d="m 20.691604,292.23698 h 0.295589 v 1.77578 h -0.295589 v -0.30903 q -0.09181,0.14108 -0.181385,0.21274 -0.08733,0.0716 -0.181384,0.10748 -0.09405,0.0381 -0.206016,0.0381 -0.246325,0 -0.418752,-0.13884 -0.170187,-0.13883 -0.170187,-0.55982 v -1.12638 h 0.295589 v 1.00097 q 0,0.38964 0.103008,0.4725 0.103008,0.0806 0.255282,0.0806 0.132119,0 0.248563,-0.0761 0.118684,-0.0784 0.185863,-0.21722 0.06942,-0.14107 0.06942,-0.3874 z"
         style="font-style:normal;font-variant:normal;font-weight:normal;font-stretch:normal;font-size:4.58611px;font-family:'Apple Symbols';-inkscape-font-specification:'Apple Symbols';fill:#faed1f;fill-opacity:1;stroke-width:0.264583"
         id="path1827" />
      <path
         d="m 21.750798,294.01276 h -0.295589 v -1.77578 h 0.295589 v 0.30679 q 0.09405,-0.14556 0.181384,-0.21498 0.08957,-0.0694 0.185863,-0.10524 0.09629,-0.0358 0.214974,-0.0358 0.165709,0 0.297829,0.0694 0.134358,0.0672 0.206016,0.20153 0.0739,0.13212 0.0739,0.42323 v 1.13086 h -0.295589 v -1.00322 q 0,-0.2396 -0.03135,-0.33813 -0.03135,-0.0985 -0.125401,-0.15451 -0.09181,-0.0582 -0.199299,-0.0582 -0.12988,0 -0.248564,0.0761 -0.116444,0.0761 -0.188102,0.21497 -0.07166,0.1366 -0.07166,0.38964 z"
         style="font-style:normal;font-variant:normal;font-weight:normal;font-stretch:normal;font-size:4.58611px;font-family:'Apple Symbols';-inkscape-font-specification:'Apple Symbols';fill:#faed1f;fill-opacity:1;stroke-width:0.264583"
         id="path1829" />
      <path
         d="m 24.516348,293.55594 h 0.295589 v 0.0157 q 0,0.11869 -0.09405,0.24185 -0.09405,0.12092 -0.248564,0.18586 -0.154512,0.0627 -0.353811,0.0627 -0.405315,0 -0.627007,-0.262 -0.219453,-0.262 -0.219453,-0.66283 0,-0.4098 0.232889,-0.67852 0.232888,-0.27095 0.600135,-0.27095 0.201538,0 0.365008,0.0873 0.165709,0.0873 0.25976,0.2732 0.09629,0.18362 0.09629,0.51504 v 0.0985 h -1.260733 q 0,0.28439 0.152273,0.47025 0.154513,0.18363 0.42547,0.18363 0.19482,0 0.284392,-0.0739 0.09181,-0.0761 0.09181,-0.17019 z m -0.936032,-0.61581 h 0.958425 v -0.0358 q 0,-0.12317 -0.06046,-0.23961 -0.05822,-0.11868 -0.16347,-0.17467 -0.105248,-0.056 -0.244085,-0.056 -0.165709,0 -0.306786,0.13436 -0.138837,0.13212 -0.183623,0.37173 z"
         style="font-style:normal;font-variant:normal;font-weight:normal;font-stretch:normal;font-size:4.58611px;font-family:'Apple Symbols';-inkscape-font-specification:'Apple Symbols';fill:#faed1f;fill-opacity:1;stroke-width:0.264583"
         id="path1831" />
    </g>
    <g
       aria-label="IN"
       id="text1836"
       style="font-style:normal;font-weight:normal;font-size:2.82222px;line-height:1.25;font-family:sans-serif;fill:#ffffff;fill-opacity:1;stroke:none;stroke-width:0.264583">
      <path
         d="M 9.5488406,239.29694 H 8.7385548 v -0.20947 H 9.007272 V 237.4545 H 8.7385548 v -0.20946 h 0.8102858 v 0.20946 H 9.2801234 v 1.63297 h 0.2687172 z"
         style="font-size:2.82222px;fill:#ffffff;fill-opacity:1;stroke-width:0.264583"
         id="path1862" />
      <path
         d="m 11.581445,239.29694 h -0.337619 l -0.972894,-1.83555 v 1.83555 h -0.254937 v -2.0519 h 0.423058 l 0.887456,1.67569 v -1.67569 h 0.254936 z"
         style="font-size:2.82222px;fill:#ffffff;fill-opacity:1;stroke-width:0.264583"
         id="path1864" />
    </g>
    <g
       aria-label="OUT"
       id="text1836-9"
       style="font-style:normal;font-weight:normal;font-size:2.82222px;line-height:1.25;font-family:sans-serif;display:inline;fill:#ffffff;fill-opacity:1;stroke:none;stroke-width:0.264583">
      <path
         d="m 8.8722243,269.48612 q 0.1254014,0.1378 0.1915472,0.33761 0.067524,0.19982 0.067524,0.45338 0,0.25356 -0.068902,0.45475 -0.067524,0.19982 -0.1901691,0.33349 -0.1267794,0.13918 -0.3004121,0.20946 -0.1722547,0.0703 -0.3941186,0.0703 -0.2163519,0 -0.3941187,-0.0717 -0.1763887,-0.0717 -0.3004121,-0.20808 -0.1240233,-0.13643 -0.1915471,-0.33487 -0.066146,-0.19843 -0.066146,-0.45337 0,-0.2508 0.066146,-0.44924 0.066146,-0.19982 0.1929252,-0.34175 0.1212672,-0.13505 0.3004121,-0.20671 0.1805228,-0.0717 0.3927406,-0.0717 0.2204859,0 0.3954966,0.073 0.1763888,0.0717 0.2990341,0.20533 z m -0.024805,0.79099 q 0,-0.39963 -0.1791448,-0.61598 -0.1791448,-0.21773 -0.4892032,-0.21773 -0.3128144,0 -0.4919593,0.21773 -0.1777668,0.21635 -0.1777668,0.61598 0,0.40376 0.181901,0.61874 0.1819009,0.21359 0.4878251,0.21359 0.3059243,0 0.4864471,-0.21359 0.1819009,-0.21498 0.1819009,-0.61874 z"
         style="font-size:2.82222px;fill:#ffffff;fill-opacity:1;stroke-width:0.264583"
         id="path1867" />
      <path
         d="m 11.108779,270.4783 q 0,0.22324 -0.04961,0.38999 -0.04823,0.16536 -0.159852,0.2756 -0.106109,0.10473 -0.248047,0.15297 -0.141937,0.0482 -0.330729,0.0482 -0.192925,0 -0.3362406,-0.051 -0.1433159,-0.051 -0.2411565,-0.15021 -0.1116211,-0.113 -0.1612304,-0.27285 -0.048231,-0.15985 -0.048231,-0.39274 v -1.22783 h 0.2728514 v 1.24161 q 0,0.16674 0.022049,0.26321 0.023427,0.0965 0.07717,0.17501 0.060634,0.0896 0.1639868,0.13505 0.10473,0.0455 0.250802,0.0455 0.14745,0 0.250803,-0.0441 0.103353,-0.0455 0.165365,-0.13642 0.05374,-0.0786 0.07579,-0.17915 0.02343,-0.10197 0.02343,-0.25218 v -1.2485 h 0.272852 z"
         style="font-size:2.82222px;fill:#ffffff;fill-opacity:1;stroke-width:0.264583"
         id="path1869" />
      <path
         d="m 13.09453,269.49301 h -0.733116 v 1.80936 h -0.272851 v -1.80936 h -0.733116 v -0.24254 h 1.739083 z"
         style="font-size:2.82222px;fill:#ffffff;fill-opacity:1;stroke-width:0.264583"
         id="path1871" />
    </g>
    <text
       xml:space="preserve"
       style="font-style:normal;font-weight:normal;font-size:10.5833px;line-height:1.25;font-family:sans-serif;fill:#000000;fill-opacity:1;stroke:none;stroke-width:0.264583"
       x="-36.64912"
       y="193.73024"
       id="text877"><tspan
         sodipodi:role="line"
         id="tspan875"
         x="-36.64912"
         y="193.73024"
         style="stroke-width:0.264583" /></text>
    <g
       aria-label="अग्नि"
       id="text1078"
       style="font-style:normal;font-weight:normal;font-size:10.5833px;line-height:1.25;font-family:sans-serif;fill:#faed1f;fill-opacity:1;stroke:none;stroke-width:0.264583"
       transform="translate(0,0.52916667)">
      <path
         d="m 8.7673245,179.58464 v 0.7338 H 7.1963659 v 5.88076 H 6.9793256 l -0.5942771,-0.7028 v -2.32543 q -0.5684389,0.1912 -1.121375,0.14986 0.025838,0.14469 0.025838,0.28422 0,0.59944 -0.3979073,0.97668 -0.3927396,0.37207 -1.0231901,0.37207 -0.816485,0 -1.4055945,-0.72864 -0.5891094,-0.7338 -0.7183001,-1.73115 H 2.002901 q 0.1343583,0.75447 0.5942771,1.25057 0.4650864,0.49609 1.0438606,0.49609 0.3772368,0 0.7027973,-0.24805 0.3255604,-0.24804 0.3255604,-0.68729 0,-0.24805 -0.1550288,-0.47026 -0.1550288,-0.22737 -0.4547511,-0.33589 -0.2945547,-0.11369 -0.4857569,-0.11369 -0.1963699,0 -0.5839419,0.0827 l -0.5787742,-0.67696 q 0.9508434,-0.0723 1.5296176,-0.37723 0.5787742,-0.31006 0.5787742,-0.74414 0,-0.27389 -0.2377109,-0.45475 -0.2325432,-0.18087 -0.5632713,-0.18087 -0.5839418,0 -1.5141146,0.51159 l -0.4599188,-0.66145 q 0.7389706,-0.29972 1.4210973,-0.29972 0.7958146,0 1.2815715,0.40307 0.4909245,0.39791 0.4909245,1.05936 0,0.38241 -0.2428784,0.66663 -0.2428785,0.28422 -0.7286354,0.47025 0.8474908,0.39274 1.4055945,0.39274 1.0128548,0 1.0128548,-0.98702 v -1.27123 H 5.5995693 l -0.5787742,-0.7338 z m -1.5709586,0 z"
         style="fill:#faed1f;fill-opacity:1;stroke-width:0.264583"
         id="path1105" />
      <path
         d="m 12.15212,179.58464 v 0.7338 h -1.565791 v 5.86525 h -0.232543 l -0.5787745,-0.66145 v -5.2038 H 8.6226308 v -0.7338 h 1.32808 q -0.6304504,-0.60462 -0.6304504,-1.33842 0,-0.86816 0.8991666,-1.32808 0.713133,-0.36173 1.669144,-0.36173 1.503779,0 2.74401,0.75964 1.245398,0.75447 2.222079,2.26859 h -0.351398 q -0.987017,-1.16272 -2.108392,-1.74149 -1.121375,-0.58395 -2.371941,-0.58395 -0.945676,0 -1.41593,0.31523 -0.470254,0.31006 -0.470254,0.93017 0,0.55294 0.325561,1.08004 z"
         style="fill:#faed1f;fill-opacity:1;stroke-width:0.264583"
         id="path1107" />
      <path
         d="m 18.57548,179.58464 v 0.7338 h -1.570959 v 5.86525 h -0.242878 l -0.568439,-0.67179 v -1.37975 l -1.446936,0.84749 q -0.186034,0.10852 -0.186034,0.28939 0,0.14469 0.134358,0.36173 0.139526,0.21704 0.139526,0.28422 0,0.19637 -0.237711,0.19637 -0.211872,0.005 -0.640785,-0.27389 -0.428913,-0.28422 -0.428913,-0.64078 0,-0.3669 0.60978,-0.69246 l 2.056715,-1.11104 v -3.07474 h -1.865513 l 0.09302,2.06705 q 0.03101,0.67179 -0.10852,1.02836 -0.134358,0.3514 -0.351399,0.3514 -0.253214,0 -0.676959,-0.59428 l -0.444416,-0.62528 q -0.310057,-0.43408 -0.310057,-0.60462 0,-0.1912 0.294554,-0.1912 0.08785,0 0.299723,0.0258 0.21704,0.031 0.32556,0.031 0.294555,0 0.294555,-0.28422 v -1.20406 h -1.731155 v -0.7338 z m -1.570959,6.43886 z m 0,-6.43886 z"
         style="fill:#faed1f;fill-opacity:1;stroke-width:0.264583"
         id="path1109" />
    </g>
    <g
       aria-label="AGNI"
       id="text1114"
       style="font-style:normal;font-weight:normal;font-size:2.82222px;line-height:1.25;font-family:sans-serif;fill:#faed1f;fill-opacity:1;stroke:none;stroke-width:0.264583">
      <path
         d="M 8.421606,177.30745 H 8.1308402 l -0.2011934,-0.57189 h -0.887456 l -0.2011934,0.57189 H 6.5640119 l 0.7468962,-2.0519 H 7.6747099 Z M 7.8455865,176.5013 7.4859188,175.49395 7.1248731,176.5013 Z"
         style="font-size:2.82222px;fill:#faed1f;fill-opacity:1;stroke-width:0.264583"
         id="path1116" />
      <path
         d="m 10.444565,177.15587 q -0.168121,0.0772 -0.367936,0.13504 -0.1984377,0.0565 -0.3844727,0.0565 -0.2397785,0 -0.4395939,-0.0661 -0.1998153,-0.0661 -0.3403751,-0.19844 -0.1419379,-0.13367 -0.2191079,-0.33349 -0.07717,-0.20119 -0.07717,-0.46991 0,-0.49196 0.2866317,-0.77583 0.2880098,-0.28525 0.7896153,-0.28525 0.1750107,0 0.3569117,0.0427 0.183279,0.0414 0.394119,0.14194 v 0.32384 h -0.02481 q -0.04272,-0.0331 -0.124023,-0.0868 -0.08131,-0.0537 -0.159853,-0.0896 -0.09508,-0.0427 -0.2163516,-0.0703 -0.1198892,-0.0289 -0.2728514,-0.0289 -0.3445093,0 -0.5457027,0.22187 -0.1998154,0.22048 -0.1998154,0.59807 0,0.39825 0.2094617,0.62011 0.2094616,0.22049 0.5705074,0.22049 0.1322915,0 0.2632051,-0.0262 0.1322919,-0.0262 0.2315099,-0.0675 v -0.50298 H 9.6246325 v -0.23978 h 0.8199325 z"
         style="font-size:2.82222px;fill:#faed1f;fill-opacity:1;stroke-width:0.264583"
         id="path1118" />
      <path
         d="m 12.486816,177.30745 h -0.337619 l -0.972895,-1.83555 v 1.83555 h -0.254936 v -2.0519 h 0.423057 l 0.887456,1.6757 v -1.6757 h 0.254937 z"
         style="font-size:2.82222px;fill:#faed1f;fill-opacity:1;stroke-width:0.264583"
         id="path1120" />
      <path
         d="m 13.755988,177.30745 h -0.810286 v -0.20946 h 0.268717 v -1.63298 h -0.268717 v -0.20946 h 0.810286 v 0.20946 H 13.48727 v 1.63298 h 0.268718 z"
         style="font-size:2.82222px;fill:#faed1f;fill-opacity:1;stroke-width:0.264583"
         id="path1122" />
    </g>
  </g>
  <g
     inkscape:groupmode="layer"
     id="layer2"
     inkscape:label="components"
     style="display:none">
    <circle
       style="display:inline;opacity:1;vector-effect:none;fill:#ff0000;fill-opacity:1;fill-rule:evenodd;stroke:none;stroke-width:1;stroke-linecap:butt;stroke-linejoin:miter;stroke-miterlimit:4;stroke-dasharray:none;stroke-dashoffset:0;stroke-opacity:1;paint-order:normal"
       id="path4954"
       cx="10.16"
       cy="49.767429"
       r="4"
       inkscape:label="pitch" />
    <circle
       r="4"
       cy="77.477875"
       cx="10.16"
       id="circle4956"
       style="display:inline;opacity:1;vector-effect:none;fill:#00ff00;fill-opacity:1;fill-rule:evenodd;stroke:none;stroke-width:1;stroke-linecap:butt;stroke-linejoin:miter;stroke-miterlimit:4;stroke-dasharray:none;stroke-dashoffset:0;stroke-opacity:1;paint-order:normal"
       inkscape:label="pitch" />
    <circle
       style="display:inline;opacity:1;vector-effect:none;fill:#0000ff;fill-opacity:1;fill-rule:evenodd;stroke:none;stroke-width:1;stroke-linecap:butt;stroke-linejoin:miter;stroke-miterlimit:4;stroke-dasharray:none;stroke-dashoffset:0;stroke-opacity:1;paint-order:normal"
       id="circle4958"
       cx="10.16"
       cy="108.71259"
       r="4"
       inkscape:label="sine" />
    <circle
       style="display:inline;vector-effect:none;fill:#ff0000;fill-opacity:1;fill-rule:evenodd;stroke:none;stroke-width:1;stroke-linecap:butt;stroke-linejoin:miter;stroke-miterlimit:4;stroke-dasharray:none;stroke-dashoffset:0;stroke-opacity:1;paint-order:normal"
       id="circle61-5"
       cx="10.16"
       cy="24.460236"
       r="4"
       inkscape:label="pitch" />
  </g>
</svg>
