<?xml version="1.0" encoding="UTF-8" standalone="no"?>
<svg
   xmlns:dc="http://purl.org/dc/elements/1.1/"
   xmlns:cc="http://creativecommons.org/ns#"
   xmlns:rdf="http://www.w3.org/1999/02/22-rdf-syntax-ns#"
   xmlns:svg="http://www.w3.org/2000/svg"
   xmlns="http://www.w3.org/2000/svg"
   xmlns:sodipodi="http://sodipodi.sourceforge.net/DTD/sodipodi-0.dtd"
   xmlns:inkscape="http://www.inkscape.org/namespaces/inkscape"
   width="20.32mm"
   height="128.5mm"
   viewBox="0 0 20.320001 128.50002"
   version="1.1"
   id="svg8"
   inkscape:version="1.0.2 (e86c8708, 2021-01-15)"
   sodipodi:docname="MyQuantizer.svg">
  <defs
     id="defs2" />
  <sodipodi:namedview
     id="base"
     pagecolor="#ffffff"
     bordercolor="#666666"
     borderopacity="1.0"
     inkscape:pageopacity="0.0"
     inkscape:pageshadow="2"
     inkscape:zoom="2.4329258"
     inkscape:cx="52.288574"
     inkscape:cy="213.40006"
     inkscape:document-units="mm"
     inkscape:current-layer="layer1"
     showgrid="false"
     units="mm"
     inkscape:snap-bbox="true"
     inkscape:snap-page="true"
     inkscape:bbox-nodes="false"
     inkscape:snap-bbox-edge-midpoints="false"
     inkscape:window-width="2450"
     inkscape:window-height="1395"
     inkscape:window-x="990"
     inkscape:window-y="23"
     inkscape:window-maximized="0"
     inkscape:snap-bbox-midpoints="true"
     inkscape:snap-nodes="false"
     inkscape:document-rotation="0" />
  <metadata
     id="metadata5">
    <rdf:RDF>
      <cc:Work
         rdf:about="">
        <dc:format>image/svg+xml</dc:format>
        <dc:type
           rdf:resource="http://purl.org/dc/dcmitype/StillImage" />
        <dc:title></dc:title>
      </cc:Work>
    </rdf:RDF>
  </metadata>
  <g
     inkscape:label="Layer 1"
     inkscape:groupmode="layer"
     id="layer1"
     transform="translate(0,-168.49998)"
     style="display:inline">
    <rect
       style="display:inline;opacity:1;vector-effect:none;fill:#333333;fill-opacity:1;fill-rule:evenodd;stroke:none;stroke-width:0.540606;stroke-linecap:butt;stroke-linejoin:miter;stroke-miterlimit:4;stroke-dasharray:none;stroke-dashoffset:0;stroke-opacity:1;paint-order:normal"
       id="rect420"
       width="21.125566"
       height="128.5"
       x="5.9211732e-17"
       y="168.49997" />
    <g
       aria-label="Pitch"
       style="font-style:normal;font-variant:normal;font-weight:300;font-stretch:normal;font-size:4.93889px;line-height:6.61458px;font-family:'Gotham Rounded';-inkscape-font-specification:'Gotham Rounded Light';font-variant-ligatures:normal;font-variant-caps:normal;font-variant-numeric:normal;font-feature-settings:normal;text-align:center;letter-spacing:0px;word-spacing:0px;writing-mode:lr-tb;text-anchor:middle;display:inline;fill:#000000;fill-opacity:1;stroke:none;stroke-width:0.264583px;stroke-linecap:butt;stroke-linejoin:miter;stroke-opacity:1"
       id="text4944"
       transform="translate(0,10.583334)" />
    <g
       aria-label="ब्रह्म"
       id="text253"
       style="font-style:normal;font-weight:normal;font-size:10.5833px;line-height:1.25;font-family:sans-serif;fill:#faed1f;fill-opacity:1;stroke:none;stroke-width:0.264583"
       transform="translate(-5.08,5.2916669)">
      <path
         d="m 10.620142,179.45079 -1.8138374,1.30224 -0.511595,-0.59428 1.1472131,-0.76997 q -0.4547511,-0.22221 -0.8629937,-0.72864 -0.4082425,-0.51159 -0.4082425,-1.01802 0,-0.63045 0.692462,-1.04903 0.692462,-0.42374 1.2970745,-0.42374 0.258381,0 0.563271,0.13952 0.30489,0.13436 0.950843,0.69763 v -1.91719 H 7.6435886 v -0.7338 h 6.4130244 v 0.7338 h -1.570958 v 5.88076 h -0.10852 l -0.702798,-0.68729 v -1.36942 q -0.609779,0.40307 -1.054195,0.53743 z m 1.054195,-2.09289 q -0.485756,-0.47025 -1.012854,-0.47025 -0.516763,0 -1.00252,0.26871 l 1.229895,1.31258 q 0.532266,-0.27905 0.661456,-0.50643 0.134359,-0.23254 0.124023,-0.60461 z m -1.038693,1.2299 -1.2298947,-1.32292 q -0.7441382,0.37724 -0.7441382,0.863 0,0.28938 0.2738842,0.54777 0.2738842,0.25321 0.6304505,0.25321 0.387572,0 1.0696982,-0.34106 z m 1.850011,2.20657 z m 0,-6.43886 z m -2.408114,5.18313 z"
         style="fill:#faed1f;fill-opacity:1;stroke-width:0.264583"
         id="path1082" />
      <path
         d="m 22.836411,175.08931 h -1.560623 v 8.37673 H 21.07425 l -0.604612,-0.6718 v -1.9947 h -1.607132 v 0.88883 q 0,0.31006 -0.201537,0.31006 -0.19637,0 -0.899167,-0.75447 -0.69763,-0.74931 -0.69763,-1.00252 0,-0.1602 0.242879,-0.1602 h 1.291906 q -0.08268,-1.2609 -1.322912,-1.2609 -0.899167,0 -1.441768,0.50126 -0.542601,0.50126 -0.542601,1.31258 0,0.34106 0.134358,0.67696 0.139526,0.33589 0.387572,0.64078 0.248047,0.30489 1.421098,1.46761 l -0.160197,0.1757 q -1.364253,-1.34359 -1.76216,-1.80351 -0.397908,-0.45475 -0.568439,-0.84749 -0.170532,-0.38757 -0.170532,-0.75964 0,-0.925 0.899167,-1.63297 -0.976681,-1.07486 -0.976681,-1.57612 0,-0.3204 0.211872,-0.4961 0.211873,-0.1757 1.095537,-0.1757 h 2.098057 v -1.21439 h -3.994576 v -0.7338 h 8.929659 z m -2.366773,4.99193 v -4.99193 h -1.93786 l 0.124023,1.9482 h -2.992056 q -0.651121,0 -0.651121,0.33589 0,0.40308 0.676959,1.0387 0.516763,-0.31523 1.534786,-0.31523 0.780311,0 1.209224,0.53227 0.428913,0.53226 0.428913,1.4521 z m 0.80615,3.2246 z"
         style="fill:#faed1f;fill-opacity:1;stroke-width:0.264583"
         id="path1084" />
    </g>
    <g
       aria-label="Scribbletune"
       id="text1194"
       style="font-style:normal;font-weight:normal;font-size:4.58611px;line-height:1.25;font-family:sans-serif;display:inline;fill:#ffffff;fill-opacity:1;stroke:none;stroke-width:0.264583"
       transform="matrix(0.89786642,0,0,0.83523248,-3.5234842,42.729251)">
      <path
         d="m 5.6568659,293.45741 h 0.3224609 v 0.0157 q 0,0.20602 0.1433159,0.28663 0.1455552,0.0806 0.3851616,0.0806 0.2104953,0 0.3515719,-0.12316 0.1433159,-0.12316 0.1433159,-0.32246 0,-0.16347 -0.1231621,-0.26648 -0.1209228,-0.10077 -0.3717257,-0.20378 l -0.1276408,-0.0515 q -0.2619994,-0.10749 -0.3918795,-0.21274 -0.1298801,-0.10748 -0.1948201,-0.23513 -0.062701,-0.12988 -0.062701,-0.28887 0,-0.27991 0.1970594,-0.47249 0.1992987,-0.19258 0.6202893,-0.19258 0.3874009,0 0.5441527,0.14331 0.1567518,0.14332 0.1567518,0.33366 v 0.0179 H 6.9287949 v -0.0179 q 0,-0.0605 -0.049265,-0.11868 -0.049265,-0.0582 -0.1455552,-0.0851 -0.09629,-0.0269 -0.2127346,-0.0269 -0.2373671,0 -0.351572,0.11869 -0.1119655,0.11868 -0.1119655,0.27095 0,0.10077 0.053743,0.19034 0.053743,0.0896 0.1477946,0.15004 0.094051,0.0582 0.3179822,0.15675 l 0.1522732,0.0649 q 0.3627685,0.15675 0.4836913,0.33142 0.1209229,0.17242 0.1209229,0.37396 0,0.18587 -0.09853,0.36053 -0.09853,0.17243 -0.2731961,0.262 -0.1746663,0.0896 -0.4657768,0.0896 -0.2754353,0 -0.4612982,-0.0672 -0.1858628,-0.0649 -0.2821532,-0.21497 -0.09629,-0.15003 -0.09629,-0.33142 z"
         style="font-style:normal;font-variant:normal;font-weight:normal;font-stretch:normal;font-size:4.58611px;font-family:'Apple Symbols';-inkscape-font-specification:'Apple Symbols';fill:#faed1f;fill-opacity:1;stroke-width:0.264583"
         id="path1809" />
      <path
         d="m 8.79862,293.55594 h 0.2978285 v 0.0157 q 0,0.12092 -0.091812,0.24185 -0.089573,0.11868 -0.2351277,0.18362 -0.143316,0.0649 -0.3493326,0.0649 -0.3918796,0 -0.6046142,-0.24856 -0.2127346,-0.24857 -0.2127346,-0.68971 0,-0.43891 0.2127346,-0.68747 0.2127346,-0.24856 0.6046142,-0.24856 0.2060166,0 0.3493326,0.0649 0.1455552,0.0627 0.2351277,0.1769 0.091812,0.11197 0.091812,0.24857 v 0.0157 H 8.79862 v -0.0157 q 0.00448,-0.0985 -0.085094,-0.17019 -0.089573,-0.0739 -0.2776747,-0.0739 -0.2216918,0 -0.373965,0.16347 -0.1500339,0.16347 -0.1500339,0.52624 0,0.36501 0.1500339,0.52848 0.1522732,0.16347 0.373965,0.16347 0.1881022,0 0.2754354,-0.0717 0.087333,-0.0739 0.087333,-0.17243 z"
         style="font-style:normal;font-variant:normal;font-weight:normal;font-stretch:normal;font-size:4.58611px;font-family:'Apple Symbols';-inkscape-font-specification:'Apple Symbols';fill:#faed1f;fill-opacity:1;stroke-width:0.264583"
         id="path1811" />
      <path
         d="M 9.7570454,294.01276 H 9.4614562 v -1.77578 h 0.2955892 v 0.31351 q 0.073897,-0.1366 0.1589911,-0.2105 0.087333,-0.0739 0.1858625,-0.11196 0.09853,-0.0403 0.199299,-0.0403 0.09181,0 0.158991,0.0269 v 0.30678 q -0.105247,-0.0515 -0.221692,-0.0515 -0.167948,0 -0.3246998,0.1478 -0.1567518,0.14555 -0.1567518,0.51728 z"
         style="font-style:normal;font-variant:normal;font-weight:normal;font-stretch:normal;font-size:4.58611px;font-family:'Apple Symbols';-inkscape-font-specification:'Apple Symbols';fill:#faed1f;fill-opacity:1;stroke-width:0.264583"
         id="path1813" />
      <path
         d="m 10.724428,292.23698 h 0.295589 v 1.77578 h -0.295589 z m 0,-0.39412 v -0.29783 h 0.295589 v 0.29783 z"
         style="font-style:normal;font-variant:normal;font-weight:normal;font-stretch:normal;font-size:4.58611px;font-family:'Apple Symbols';-inkscape-font-specification:'Apple Symbols';fill:#faed1f;fill-opacity:1;stroke-width:0.264583"
         id="path1815" />
      <path
         d="m 11.767947,294.01276 h -0.295589 q 0.0067,-0.0873 0.0112,-0.21274 0.0067,-0.1254 0.009,-0.20378 0.0045,-0.0806 0.0045,-0.10748 v -2.04225 h 0.29559 v 1.0995 q 0.09629,-0.15228 0.181384,-0.21946 0.08509,-0.0694 0.185863,-0.103 0.103008,-0.0358 0.212734,-0.0358 0.201538,0 0.369487,0.11196 0.170187,0.10973 0.264238,0.32918 0.09405,0.21945 0.09405,0.49265 0,0.40532 -0.19706,0.67403 -0.19482,0.26648 -0.544153,0.26648 -0.114204,0 -0.214973,-0.0336 -0.10077,-0.0314 -0.179145,-0.0963 -0.07838,-0.0649 -0.172427,-0.22841 l -0.009,0.12764 q -0.0067,0.10749 -0.01567,0.18139 z m 0.02463,-0.88677 q 0,0.30231 0.12988,0.49713 0.132119,0.19258 0.367247,0.19258 0.214974,0 0.35829,-0.17019 0.143316,-0.17243 0.143316,-0.51504 0,-0.3986 -0.147795,-0.55311 -0.145555,-0.15675 -0.347093,-0.15675 -0.141077,0 -0.264239,0.0851 -0.120923,0.0851 -0.181384,0.25304 -0.05822,0.16795 -0.05822,0.36725 z"
         style="font-style:normal;font-variant:normal;font-weight:normal;font-stretch:normal;font-size:4.58611px;font-family:'Apple Symbols';-inkscape-font-specification:'Apple Symbols';fill:#faed1f;fill-opacity:1;stroke-width:0.264583"
         id="path1817" />
      <path
         d="m 13.756456,294.01276 h -0.295589 q 0.0067,-0.0873 0.0112,-0.21274 0.0067,-0.1254 0.009,-0.20378 0.0045,-0.0806 0.0045,-0.10748 v -2.04225 h 0.295589 v 1.0995 q 0.09629,-0.15228 0.181385,-0.21946 0.08509,-0.0694 0.185862,-0.103 0.103009,-0.0358 0.212735,-0.0358 0.201538,0 0.369486,0.11196 0.170188,0.10973 0.264239,0.32918 0.09405,0.21945 0.09405,0.49265 0,0.40532 -0.197059,0.67403 -0.19482,0.26648 -0.544153,0.26648 -0.114205,0 -0.214974,-0.0336 -0.100769,-0.0314 -0.179145,-0.0963 -0.07838,-0.0649 -0.172427,-0.22841 l -0.009,0.12764 q -0.0067,0.10749 -0.01567,0.18139 z m 0.02463,-0.88677 q 0,0.30231 0.12988,0.49713 0.13212,0.19258 0.367247,0.19258 0.214974,0 0.35829,-0.17019 0.143316,-0.17243 0.143316,-0.51504 0,-0.3986 -0.147794,-0.55311 -0.145556,-0.15675 -0.347094,-0.15675 -0.141076,0 -0.264238,0.0851 -0.120923,0.0851 -0.181385,0.25304 -0.05822,0.16795 -0.05822,0.36725 z"
         style="font-style:normal;font-variant:normal;font-weight:normal;font-stretch:normal;font-size:4.58611px;font-family:'Apple Symbols';-inkscape-font-specification:'Apple Symbols';fill:#faed1f;fill-opacity:1;stroke-width:0.264583"
         id="path1819" />
      <path
         d="m 15.767358,294.01276 h -0.295589 v -2.56625 h 0.295589 z"
         style="font-style:normal;font-variant:normal;font-weight:normal;font-stretch:normal;font-size:4.58611px;font-family:'Apple Symbols';-inkscape-font-specification:'Apple Symbols';fill:#faed1f;fill-opacity:1;stroke-width:0.264583"
         id="path1821" />
      <path
         d="m 17.404294,293.55594 h 0.295589 v 0.0157 q 0,0.11869 -0.09405,0.24185 -0.09405,0.12092 -0.248563,0.18586 -0.154513,0.0627 -0.353812,0.0627 -0.405315,0 -0.627007,-0.262 -0.219452,-0.262 -0.219452,-0.66283 0,-0.4098 0.232888,-0.67852 0.232888,-0.27095 0.600135,-0.27095 0.201538,0 0.365008,0.0873 0.165709,0.0873 0.25976,0.2732 0.09629,0.18362 0.09629,0.51504 v 0.0985 h -1.260733 q 0,0.28439 0.152274,0.47025 0.154512,0.18363 0.425469,0.18363 0.19482,0 0.284392,-0.0739 0.09181,-0.0761 0.09181,-0.17019 z m -0.936032,-0.61581 h 0.958425 v -0.0358 q 0,-0.12317 -0.06046,-0.23961 -0.05822,-0.11868 -0.16347,-0.17467 -0.105248,-0.056 -0.244085,-0.056 -0.165709,0 -0.306786,0.13436 -0.138837,0.13212 -0.183623,0.37173 z"
         style="font-style:normal;font-variant:normal;font-weight:normal;font-stretch:normal;font-size:4.58611px;font-family:'Apple Symbols';-inkscape-font-specification:'Apple Symbols';fill:#faed1f;fill-opacity:1;stroke-width:0.264583"
         id="path1823" />
      <path
         d="m 19.200222,293.76195 v 0.24857 q -0.214974,0.0515 -0.329179,0.0515 -0.165709,0 -0.300067,-0.0672 -0.13212,-0.0672 -0.201539,-0.19258 -0.06942,-0.12764 -0.06942,-0.40531 v -0.91364 h -0.306786 v -0.24633 h 0.306786 v -0.42099 h 0.297828 v 0.42099 h 0.517281 v 0.24633 h -0.517281 v 0.82854 q 0,0.23513 0.03583,0.32694 0.03583,0.0918 0.114205,0.13436 0.07838,0.0426 0.188102,0.0426 0.08733,0 0.264239,-0.0537 z"
         style="font-style:normal;font-variant:normal;font-weight:normal;font-stretch:normal;font-size:4.58611px;font-family:'Apple Symbols';-inkscape-font-specification:'Apple Symbols';fill:#faed1f;fill-opacity:1;stroke-width:0.264583"
         id="path1825" />
      <path
         d="m 20.691604,292.23698 h 0.295589 v 1.77578 h -0.295589 v -0.30903 q -0.09181,0.14108 -0.181385,0.21274 -0.08733,0.0716 -0.181384,0.10748 -0.09405,0.0381 -0.206016,0.0381 -0.246325,0 -0.418752,-0.13884 -0.170187,-0.13883 -0.170187,-0.55982 v -1.12638 h 0.295589 v 1.00097 q 0,0.38964 0.103008,0.4725 0.103008,0.0806 0.255282,0.0806 0.132119,0 0.248563,-0.0761 0.118684,-0.0784 0.185863,-0.21722 0.06942,-0.14107 0.06942,-0.3874 z"
         style="font-style:normal;font-variant:normal;font-weight:normal;font-stretch:normal;font-size:4.58611px;font-family:'Apple Symbols';-inkscape-font-specification:'Apple Symbols';fill:#faed1f;fill-opacity:1;stroke-width:0.264583"
         id="path1827" />
      <path
         d="m 21.750798,294.01276 h -0.295589 v -1.77578 h 0.295589 v 0.30679 q 0.09405,-0.14556 0.181384,-0.21498 0.08957,-0.0694 0.185863,-0.10524 0.09629,-0.0358 0.214974,-0.0358 0.165709,0 0.297829,0.0694 0.134358,0.0672 0.206016,0.20153 0.0739,0.13212 0.0739,0.42323 v 1.13086 h -0.295589 v -1.00322 q 0,-0.2396 -0.03135,-0.33813 -0.03135,-0.0985 -0.125401,-0.15451 -0.09181,-0.0582 -0.199299,-0.0582 -0.12988,0 -0.248564,0.0761 -0.116444,0.0761 -0.188102,0.21497 -0.07166,0.1366 -0.07166,0.38964 z"
         style="font-style:normal;font-variant:normal;font-weight:normal;font-stretch:normal;font-size:4.58611px;font-family:'Apple Symbols';-inkscape-font-specification:'Apple Symbols';fill:#faed1f;fill-opacity:1;stroke-width:0.264583"
         id="path1829" />
      <path
         d="m 24.516348,293.55594 h 0.295589 v 0.0157 q 0,0.11869 -0.09405,0.24185 -0.09405,0.12092 -0.248564,0.18586 -0.154512,0.0627 -0.353811,0.0627 -0.405315,0 -0.627007,-0.262 -0.219453,-0.262 -0.219453,-0.66283 0,-0.4098 0.232889,-0.67852 0.232888,-0.27095 0.600135,-0.27095 0.201538,0 0.365008,0.0873 0.165709,0.0873 0.25976,0.2732 0.09629,0.18362 0.09629,0.51504 v 0.0985 h -1.260733 q 0,0.28439 0.152273,0.47025 0.154513,0.18363 0.42547,0.18363 0.19482,0 0.284392,-0.0739 0.09181,-0.0761 0.09181,-0.17019 z m -0.936032,-0.61581 h 0.958425 v -0.0358 q 0,-0.12317 -0.06046,-0.23961 -0.05822,-0.11868 -0.16347,-0.17467 -0.105248,-0.056 -0.244085,-0.056 -0.165709,0 -0.306786,0.13436 -0.138837,0.13212 -0.183623,0.37173 z"
         style="font-style:normal;font-variant:normal;font-weight:normal;font-stretch:normal;font-size:4.58611px;font-family:'Apple Symbols';-inkscape-font-specification:'Apple Symbols';fill:#faed1f;fill-opacity:1;stroke-width:0.264583"
         id="path1831" />
    </g>
    <g
       aria-label="IN"
       id="text1836"
       style="font-style:normal;font-weight:normal;font-size:2.82222px;line-height:1.25;font-family:sans-serif;fill:#ffffff;fill-opacity:1;stroke:none;stroke-width:0.264583">
      <path
         d="M 9.5488406,239.29694 H 8.7385548 v -0.20947 H 9.007272 V 237.4545 H 8.7385548 v -0.20946 h 0.8102858 v 0.20946 H 9.2801234 v 1.63297 h 0.2687172 z"
         style="font-size:2.82222px;fill:#ffffff;fill-opacity:1;stroke-width:0.264583"
         id="path1862" />
      <path
         d="m 11.581445,239.29694 h -0.337619 l -0.972894,-1.83555 v 1.83555 h -0.254937 v -2.0519 h 0.423058 l 0.887456,1.67569 v -1.67569 h 0.254936 z"
         style="font-size:2.82222px;fill:#ffffff;fill-opacity:1;stroke-width:0.264583"
         id="path1864" />
    </g>
    <g
       aria-label="OUT"
       id="text1836-9"
       style="font-style:normal;font-weight:normal;font-size:2.82222px;line-height:1.25;font-family:sans-serif;display:inline;fill:#ffffff;fill-opacity:1;stroke:none;stroke-width:0.264583">
      <path
         d="m 8.8722243,269.48612 q 0.1254014,0.1378 0.1915472,0.33761 0.067524,0.19982 0.067524,0.45338 0,0.25356 -0.068902,0.45475 -0.067524,0.19982 -0.1901691,0.33349 -0.1267794,0.13918 -0.3004121,0.20946 -0.1722547,0.0703 -0.3941186,0.0703 -0.2163519,0 -0.3941187,-0.0717 -0.1763887,-0.0717 -0.3004121,-0.20808 -0.1240233,-0.13643 -0.1915471,-0.33487 -0.066146,-0.19843 -0.066146,-0.45337 0,-0.2508 0.066146,-0.44924 0.066146,-0.19982 0.1929252,-0.34175 0.1212672,-0.13505 0.3004121,-0.20671 0.1805228,-0.0717 0.3927406,-0.0717 0.2204859,0 0.3954966,0.073 0.1763888,0.0717 0.2990341,0.20533 z m -0.024805,0.79099 q 0,-0.39963 -0.1791448,-0.61598 -0.1791448,-0.21773 -0.4892032,-0.21773 -0.3128144,0 -0.4919593,0.21773 -0.1777668,0.21635 -0.1777668,0.61598 0,0.40376 0.181901,0.61874 0.1819009,0.21359 0.4878251,0.21359 0.3059243,0 0.4864471,-0.21359 0.1819009,-0.21498 0.1819009,-0.61874 z"
         style="font-size:2.82222px;fill:#ffffff;fill-opacity:1;stroke-width:0.264583"
         id="path1867" />
      <path
         d="m 11.108779,270.4783 q 0,0.22324 -0.04961,0.38999 -0.04823,0.16536 -0.159852,0.2756 -0.106109,0.10473 -0.248047,0.15297 -0.141937,0.0482 -0.330729,0.0482 -0.192925,0 -0.3362406,-0.051 -0.1433159,-0.051 -0.2411565,-0.15021 -0.1116211,-0.113 -0.1612304,-0.27285 -0.048231,-0.15985 -0.048231,-0.39274 v -1.22783 h 0.2728514 v 1.24161 q 0,0.16674 0.022049,0.26321 0.023427,0.0965 0.07717,0.17501 0.060634,0.0896 0.1639868,0.13505 0.10473,0.0455 0.250802,0.0455 0.14745,0 0.250803,-0.0441 0.103353,-0.0455 0.165365,-0.13642 0.05374,-0.0786 0.07579,-0.17915 0.02343,-0.10197 0.02343,-0.25218 v -1.2485 h 0.272852 z"
         style="font-size:2.82222px;fill:#ffffff;fill-opacity:1;stroke-width:0.264583"
         id="path1869" />
      <path
         d="m 13.09453,269.49301 h -0.733116 v 1.80936 h -0.272851 v -1.80936 h -0.733116 v -0.24254 h 1.739083 z"
         style="font-size:2.82222px;fill:#ffffff;fill-opacity:1;stroke-width:0.264583"
         id="path1871" />
    </g>
    <g
       aria-label="BRAHMA"
       id="text1876"
       style="font-style:normal;font-weight:normal;font-size:2.11667px;line-height:1.25;font-family:sans-serif;fill:#faed1f;fill-opacity:1;stroke:none;stroke-width:0.264583"
       transform="matrix(1.2670017,0,0,1.2670017,-2.7127377,-46.142743)">
      <path
         d="m 6.8403009,175.96546 q 0,0.11472 -0.043408,0.20257 -0.043408,0.0879 -0.116789,0.14469 -0.086817,0.0682 -0.191203,0.0971 -0.1033531,0.0289 -0.2635503,0.0289 H 5.6796465 v -1.53892 h 0.4557868 q 0.1684654,0 0.2521814,0.0124 0.083716,0.0124 0.1601972,0.0517 0.08475,0.0445 0.1229901,0.11473 0.038241,0.0692 0.038241,0.16639 0,0.10956 -0.055811,0.18707 -0.055811,0.0765 -0.1488284,0.12299 v 0.008 q 0.1560631,0.032 0.2459802,0.13746 0.089917,0.10439 0.089917,0.26459 z m -0.3441655,-0.6935 q 0,-0.0558 -0.018604,-0.0941 -0.018604,-0.0383 -0.059945,-0.062 -0.048576,-0.0279 -0.1178225,-0.0341 -0.069246,-0.007 -0.171566,-0.007 H 5.8842855 v 0.44442 h 0.2645837 q 0.096118,0 0.1529625,-0.009 0.056844,-0.0103 0.1054201,-0.0413 0.048576,-0.031 0.068213,-0.0796 0.020671,-0.0496 0.020671,-0.11679 z m 0.1312583,0.70176 q 0,-0.093 -0.027905,-0.14779 -0.027905,-0.0548 -0.101286,-0.093 -0.049609,-0.0258 -0.120923,-0.0331 -0.07028,-0.008 -0.171566,-0.008 H 5.8842855 v 0.57258 h 0.2707849 q 0.1343589,0 0.2201419,-0.0134 0.085783,-0.0145 0.1405601,-0.0517 0.057878,-0.0403 0.08475,-0.092 0.026872,-0.0517 0.026872,-0.13333 z"
         style="font-size:2.11667px;fill:#faed1f;fill-opacity:1;stroke-width:0.264583"
         id="path1878" />
      <path
         d="M 8.4040321,176.43881 H 8.1384148 l -0.514698,-0.61185 H 7.3353619 v 0.61185 h -0.204639 v -1.53892 H 7.561705 q 0.1395266,0 0.2325443,0.0186 0.093018,0.0176 0.1674319,0.0641 0.083716,0.0527 0.1302248,0.13332 0.047542,0.0796 0.047542,0.20258 0,0.16639 -0.083716,0.27905 -0.083716,0.11162 -0.2304772,0.16846 z m -0.4785245,-1.10588 q 0,-0.0661 -0.023771,-0.11678 -0.022738,-0.0517 -0.076481,-0.0868 -0.044442,-0.03 -0.1054201,-0.0413 -0.060978,-0.0124 -0.1436607,-0.0124 H 7.3353619 v 0.58084 h 0.206706 q 0.097152,0 0.169499,-0.0165 0.072347,-0.0176 0.1229901,-0.0641 0.046509,-0.0434 0.068213,-0.0992 0.022738,-0.0568 0.022738,-0.14367 z"
         style="font-size:2.11667px;fill:#faed1f;fill-opacity:1;stroke-width:0.264583"
         id="path1880" />
      <path
         d="M 9.8158344,176.43881 H 9.5977595 L 9.4468641,176.0099 H 8.7812706 l -0.1508954,0.42891 H 8.4226357 L 8.982809,174.89989 H 9.255661 Z M 9.3838188,175.8342 9.1140674,175.07869 8.8432825,175.8342 Z"
         style="font-size:2.11667px;fill:#faed1f;fill-opacity:1;stroke-width:0.264583"
         id="path1882" />
      <path
         d="m 11.226603,176.43881 h -0.204639 v -0.75344 h -0.767913 v 0.75344 h -0.204639 v -1.53892 h 0.204639 v 0.60358 h 0.767913 v -0.60358 h 0.204639 z"
         style="font-size:2.11667px;fill:#faed1f;fill-opacity:1;stroke-width:0.264583"
         id="path1884" />
      <path
         d="m 13.01151,176.43881 h -0.204639 v -1.32602 l -0.427882,0.90227 h -0.121956 l -0.424781,-0.90227 v 1.32602 h -0.191203 v -1.53892 h 0.279053 l 0.410312,0.85679 0.396875,-0.85679 h 0.284221 z"
         style="font-size:2.11667px;fill:#faed1f;fill-opacity:1;stroke-width:0.264583"
         id="path1886" />
      <path
         d="M 14.640354,176.43881 H 14.422279 L 14.271383,176.0099 H 13.60579 l -0.150896,0.42891 h -0.207739 l 0.560173,-1.53892 h 0.272852 z m -0.432016,-0.60461 -0.269751,-0.75551 -0.270785,0.75551 z"
         style="font-size:2.11667px;fill:#faed1f;fill-opacity:1;stroke-width:0.264583"
         id="path1888" />
    </g>
  </g>
  <g
     inkscape:groupmode="layer"
     id="layer2"
     inkscape:label="components"
     style="display:none">
    <circle
       style="display:inline;opacity:1;vector-effect:none;fill:#ff0000;fill-opacity:1;fill-rule:evenodd;stroke:none;stroke-width:1;stroke-linecap:butt;stroke-linejoin:miter;stroke-miterlimit:4;stroke-dasharray:none;stroke-dashoffset:0;stroke-opacity:1;paint-order:normal"
       id="path4954"
       cx="10.16"
       cy="49.767429"
       r="4"
       inkscape:label="pitch" />
    <circle
       r="4"
       cy="77.477875"
       cx="10.16"
       id="circle4956"
       style="display:inline;opacity:1;vector-effect:none;fill:#00ff00;fill-opacity:1;fill-rule:evenodd;stroke:none;stroke-width:1;stroke-linecap:butt;stroke-linejoin:miter;stroke-miterlimit:4;stroke-dasharray:none;stroke-dashoffset:0;stroke-opacity:1;paint-order:normal"
       inkscape:label="pitch" />
    <circle
       style="display:inline;opacity:1;vector-effect:none;fill:#0000ff;fill-opacity:1;fill-rule:evenodd;stroke:none;stroke-width:1;stroke-linecap:butt;stroke-linejoin:miter;stroke-miterlimit:4;stroke-dasharray:none;stroke-dashoffset:0;stroke-opacity:1;paint-order:normal"
       id="circle4958"
       cx="10.16"
       cy="108.71259"
       r="4"
       inkscape:label="sine" />
    <circle
       style="display:inline;vector-effect:none;fill:#ff0000;fill-opacity:1;fill-rule:evenodd;stroke:none;stroke-width:1;stroke-linecap:butt;stroke-linejoin:miter;stroke-miterlimit:4;stroke-dasharray:none;stroke-dashoffset:0;stroke-opacity:1;paint-order:normal"
       id="circle61-5"
       cx="10.16"
       cy="24.460236"
       r="4"
       inkscape:label="pitch" />
  </g>
</svg>
