<?xml version="1.0" encoding="UTF-8" standalone="no"?>
<svg
   xmlns:dc="http://purl.org/dc/elements/1.1/"
   xmlns:cc="http://creativecommons.org/ns#"
   xmlns:rdf="http://www.w3.org/1999/02/22-rdf-syntax-ns#"
   xmlns:svg="http://www.w3.org/2000/svg"
   xmlns="http://www.w3.org/2000/svg"
   xmlns:sodipodi="http://sodipodi.sourceforge.net/DTD/sodipodi-0.dtd"
   xmlns:inkscape="http://www.inkscape.org/namespaces/inkscape"
   width="20.32mm"
   height="128.5mm"
   viewBox="0 0 20.320001 128.50002"
   version="1.1"
   id="svg8"
   inkscape:version="1.0.2 (e86c8708, 2021-01-15)"
   sodipodi:docname="Disi.svg">
  <defs
     id="defs2" />
  <sodipodi:namedview
     id="base"
     pagecolor="#ffffff"
     bordercolor="#666666"
     borderopacity="1.0"
     inkscape:pageopacity="0.0"
     inkscape:pageshadow="2"
     inkscape:zoom="2.4329258"
     inkscape:cx="42.01288"
     inkscape:cy="196.96694"
     inkscape:document-units="mm"
     inkscape:current-layer="layer1"
     showgrid="false"
     units="mm"
     inkscape:snap-bbox="true"
     inkscape:snap-page="true"
     inkscape:bbox-nodes="false"
     inkscape:snap-bbox-edge-midpoints="false"
     inkscape:window-width="2048"
     inkscape:window-height="1235"
     inkscape:window-x="0"
     inkscape:window-y="23"
     inkscape:window-maximized="1"
     inkscape:snap-bbox-midpoints="true"
     inkscape:snap-nodes="false"
     inkscape:document-rotation="0" />
  <metadata
     id="metadata5">
    <rdf:RDF>
      <cc:Work
         rdf:about="">
        <dc:format>image/svg+xml</dc:format>
        <dc:type
           rdf:resource="http://purl.org/dc/dcmitype/StillImage" />
        <dc:title />
      </cc:Work>
    </rdf:RDF>
  </metadata>
  <g
     inkscape:label="Layer 1"
     inkscape:groupmode="layer"
     id="layer1"
     transform="translate(0,-168.49998)"
     style="display:inline">
    <rect
       style="display:inline;opacity:1;vector-effect:none;fill:#333333;fill-opacity:1;fill-rule:evenodd;stroke:none;stroke-width:0.540606;stroke-linecap:butt;stroke-linejoin:miter;stroke-miterlimit:4;stroke-dasharray:none;stroke-dashoffset:0;stroke-opacity:1;paint-order:normal"
       id="rect420"
       width="21.125566"
       height="128.5"
       x="5.9211732e-17"
       y="168.49997" />
    <g
       aria-label="Pitch"
       style="font-style:normal;font-variant:normal;font-weight:300;font-stretch:normal;font-size:4.93889px;line-height:6.61458px;font-family:'Gotham Rounded';-inkscape-font-specification:'Gotham Rounded Light';font-variant-ligatures:normal;font-variant-caps:normal;font-variant-numeric:normal;font-feature-settings:normal;text-align:center;letter-spacing:0px;word-spacing:0px;writing-mode:lr-tb;text-anchor:middle;display:inline;fill:#000000;fill-opacity:1;stroke:none;stroke-width:0.264583px;stroke-linecap:butt;stroke-linejoin:miter;stroke-opacity:1"
       id="text4944"
       transform="translate(0,10.583334)" />
    <g
       aria-label="Scribbletune"
       id="text1194"
       style="font-style:normal;font-weight:normal;font-size:4.58611px;line-height:1.25;font-family:sans-serif;display:inline;fill:#ffffff;fill-opacity:1;stroke:none;stroke-width:0.264583"
       transform="matrix(0.89786642,0,0,0.83523248,-3.5234842,42.729251)">
      <path
         d="m 5.6568659,293.45741 h 0.3224609 v 0.0157 q 0,0.20602 0.1433159,0.28663 0.1455552,0.0806 0.3851616,0.0806 0.2104953,0 0.3515719,-0.12316 0.1433159,-0.12316 0.1433159,-0.32246 0,-0.16347 -0.1231621,-0.26648 -0.1209228,-0.10077 -0.3717257,-0.20378 l -0.1276408,-0.0515 q -0.2619994,-0.10749 -0.3918795,-0.21274 -0.1298801,-0.10748 -0.1948201,-0.23513 -0.062701,-0.12988 -0.062701,-0.28887 0,-0.27991 0.1970594,-0.47249 0.1992987,-0.19258 0.6202893,-0.19258 0.3874009,0 0.5441527,0.14331 0.1567518,0.14332 0.1567518,0.33366 v 0.0179 H 6.9287949 v -0.0179 q 0,-0.0605 -0.049265,-0.11868 -0.049265,-0.0582 -0.1455552,-0.0851 -0.09629,-0.0269 -0.2127346,-0.0269 -0.2373671,0 -0.351572,0.11869 -0.1119655,0.11868 -0.1119655,0.27095 0,0.10077 0.053743,0.19034 0.053743,0.0896 0.1477946,0.15004 0.094051,0.0582 0.3179822,0.15675 l 0.1522732,0.0649 q 0.3627685,0.15675 0.4836913,0.33142 0.1209229,0.17242 0.1209229,0.37396 0,0.18587 -0.09853,0.36053 -0.09853,0.17243 -0.2731961,0.262 -0.1746663,0.0896 -0.4657768,0.0896 -0.2754353,0 -0.4612982,-0.0672 -0.1858628,-0.0649 -0.2821532,-0.21497 -0.09629,-0.15003 -0.09629,-0.33142 z"
         style="font-style:normal;font-variant:normal;font-weight:normal;font-stretch:normal;font-size:4.58611px;font-family:'Apple Symbols';-inkscape-font-specification:'Apple Symbols';fill:#faed1f;fill-opacity:1;stroke-width:0.264583"
         id="path1809" />
      <path
         d="m 8.79862,293.55594 h 0.2978285 v 0.0157 q 0,0.12092 -0.091812,0.24185 -0.089573,0.11868 -0.2351277,0.18362 -0.143316,0.0649 -0.3493326,0.0649 -0.3918796,0 -0.6046142,-0.24856 -0.2127346,-0.24857 -0.2127346,-0.68971 0,-0.43891 0.2127346,-0.68747 0.2127346,-0.24856 0.6046142,-0.24856 0.2060166,0 0.3493326,0.0649 0.1455552,0.0627 0.2351277,0.1769 0.091812,0.11197 0.091812,0.24857 v 0.0157 H 8.79862 v -0.0157 q 0.00448,-0.0985 -0.085094,-0.17019 -0.089573,-0.0739 -0.2776747,-0.0739 -0.2216918,0 -0.373965,0.16347 -0.1500339,0.16347 -0.1500339,0.52624 0,0.36501 0.1500339,0.52848 0.1522732,0.16347 0.373965,0.16347 0.1881022,0 0.2754354,-0.0717 0.087333,-0.0739 0.087333,-0.17243 z"
         style="font-style:normal;font-variant:normal;font-weight:normal;font-stretch:normal;font-size:4.58611px;font-family:'Apple Symbols';-inkscape-font-specification:'Apple Symbols';fill:#faed1f;fill-opacity:1;stroke-width:0.264583"
         id="path1811" />
      <path
         d="M 9.7570454,294.01276 H 9.4614562 v -1.77578 h 0.2955892 v 0.31351 q 0.073897,-0.1366 0.1589911,-0.2105 0.087333,-0.0739 0.1858625,-0.11196 0.09853,-0.0403 0.199299,-0.0403 0.09181,0 0.158991,0.0269 v 0.30678 q -0.105247,-0.0515 -0.221692,-0.0515 -0.167948,0 -0.3246998,0.1478 -0.1567518,0.14555 -0.1567518,0.51728 z"
         style="font-style:normal;font-variant:normal;font-weight:normal;font-stretch:normal;font-size:4.58611px;font-family:'Apple Symbols';-inkscape-font-specification:'Apple Symbols';fill:#faed1f;fill-opacity:1;stroke-width:0.264583"
         id="path1813" />
      <path
         d="m 10.724428,292.23698 h 0.295589 v 1.77578 h -0.295589 z m 0,-0.39412 v -0.29783 h 0.295589 v 0.29783 z"
         style="font-style:normal;font-variant:normal;font-weight:normal;font-stretch:normal;font-size:4.58611px;font-family:'Apple Symbols';-inkscape-font-specification:'Apple Symbols';fill:#faed1f;fill-opacity:1;stroke-width:0.264583"
         id="path1815" />
      <path
         d="m 11.767947,294.01276 h -0.295589 q 0.0067,-0.0873 0.0112,-0.21274 0.0067,-0.1254 0.009,-0.20378 0.0045,-0.0806 0.0045,-0.10748 v -2.04225 h 0.29559 v 1.0995 q 0.09629,-0.15228 0.181384,-0.21946 0.08509,-0.0694 0.185863,-0.103 0.103008,-0.0358 0.212734,-0.0358 0.201538,0 0.369487,0.11196 0.170187,0.10973 0.264238,0.32918 0.09405,0.21945 0.09405,0.49265 0,0.40532 -0.19706,0.67403 -0.19482,0.26648 -0.544153,0.26648 -0.114204,0 -0.214973,-0.0336 -0.10077,-0.0314 -0.179145,-0.0963 -0.07838,-0.0649 -0.172427,-0.22841 l -0.009,0.12764 q -0.0067,0.10749 -0.01567,0.18139 z m 0.02463,-0.88677 q 0,0.30231 0.12988,0.49713 0.132119,0.19258 0.367247,0.19258 0.214974,0 0.35829,-0.17019 0.143316,-0.17243 0.143316,-0.51504 0,-0.3986 -0.147795,-0.55311 -0.145555,-0.15675 -0.347093,-0.15675 -0.141077,0 -0.264239,0.0851 -0.120923,0.0851 -0.181384,0.25304 -0.05822,0.16795 -0.05822,0.36725 z"
         style="font-style:normal;font-variant:normal;font-weight:normal;font-stretch:normal;font-size:4.58611px;font-family:'Apple Symbols';-inkscape-font-specification:'Apple Symbols';fill:#faed1f;fill-opacity:1;stroke-width:0.264583"
         id="path1817" />
      <path
         d="m 13.756456,294.01276 h -0.295589 q 0.0067,-0.0873 0.0112,-0.21274 0.0067,-0.1254 0.009,-0.20378 0.0045,-0.0806 0.0045,-0.10748 v -2.04225 h 0.295589 v 1.0995 q 0.09629,-0.15228 0.181385,-0.21946 0.08509,-0.0694 0.185862,-0.103 0.103009,-0.0358 0.212735,-0.0358 0.201538,0 0.369486,0.11196 0.170188,0.10973 0.264239,0.32918 0.09405,0.21945 0.09405,0.49265 0,0.40532 -0.197059,0.67403 -0.19482,0.26648 -0.544153,0.26648 -0.114205,0 -0.214974,-0.0336 -0.100769,-0.0314 -0.179145,-0.0963 -0.07838,-0.0649 -0.172427,-0.22841 l -0.009,0.12764 q -0.0067,0.10749 -0.01567,0.18139 z m 0.02463,-0.88677 q 0,0.30231 0.12988,0.49713 0.13212,0.19258 0.367247,0.19258 0.214974,0 0.35829,-0.17019 0.143316,-0.17243 0.143316,-0.51504 0,-0.3986 -0.147794,-0.55311 -0.145556,-0.15675 -0.347094,-0.15675 -0.141076,0 -0.264238,0.0851 -0.120923,0.0851 -0.181385,0.25304 -0.05822,0.16795 -0.05822,0.36725 z"
         style="font-style:normal;font-variant:normal;font-weight:normal;font-stretch:normal;font-size:4.58611px;font-family:'Apple Symbols';-inkscape-font-specification:'Apple Symbols';fill:#faed1f;fill-opacity:1;stroke-width:0.264583"
         id="path1819" />
      <path
         d="m 15.767358,294.01276 h -0.295589 v -2.56625 h 0.295589 z"
         style="font-style:normal;font-variant:normal;font-weight:normal;font-stretch:normal;font-size:4.58611px;font-family:'Apple Symbols';-inkscape-font-specification:'Apple Symbols';fill:#faed1f;fill-opacity:1;stroke-width:0.264583"
         id="path1821" />
      <path
         d="m 17.404294,293.55594 h 0.295589 v 0.0157 q 0,0.11869 -0.09405,0.24185 -0.09405,0.12092 -0.248563,0.18586 -0.154513,0.0627 -0.353812,0.0627 -0.405315,0 -0.627007,-0.262 -0.219452,-0.262 -0.219452,-0.66283 0,-0.4098 0.232888,-0.67852 0.232888,-0.27095 0.600135,-0.27095 0.201538,0 0.365008,0.0873 0.165709,0.0873 0.25976,0.2732 0.09629,0.18362 0.09629,0.51504 v 0.0985 h -1.260733 q 0,0.28439 0.152274,0.47025 0.154512,0.18363 0.425469,0.18363 0.19482,0 0.284392,-0.0739 0.09181,-0.0761 0.09181,-0.17019 z m -0.936032,-0.61581 h 0.958425 v -0.0358 q 0,-0.12317 -0.06046,-0.23961 -0.05822,-0.11868 -0.16347,-0.17467 -0.105248,-0.056 -0.244085,-0.056 -0.165709,0 -0.306786,0.13436 -0.138837,0.13212 -0.183623,0.37173 z"
         style="font-style:normal;font-variant:normal;font-weight:normal;font-stretch:normal;font-size:4.58611px;font-family:'Apple Symbols';-inkscape-font-specification:'Apple Symbols';fill:#faed1f;fill-opacity:1;stroke-width:0.264583"
         id="path1823" />
      <path
         d="m 19.200222,293.76195 v 0.24857 q -0.214974,0.0515 -0.329179,0.0515 -0.165709,0 -0.300067,-0.0672 -0.13212,-0.0672 -0.201539,-0.19258 -0.06942,-0.12764 -0.06942,-0.40531 v -0.91364 h -0.306786 v -0.24633 h 0.306786 v -0.42099 h 0.297828 v 0.42099 h 0.517281 v 0.24633 h -0.517281 v 0.82854 q 0,0.23513 0.03583,0.32694 0.03583,0.0918 0.114205,0.13436 0.07838,0.0426 0.188102,0.0426 0.08733,0 0.264239,-0.0537 z"
         style="font-style:normal;font-variant:normal;font-weight:normal;font-stretch:normal;font-size:4.58611px;font-family:'Apple Symbols';-inkscape-font-specification:'Apple Symbols';fill:#faed1f;fill-opacity:1;stroke-width:0.264583"
         id="path1825" />
      <path
         d="m 20.691604,292.23698 h 0.295589 v 1.77578 h -0.295589 v -0.30903 q -0.09181,0.14108 -0.181385,0.21274 -0.08733,0.0716 -0.181384,0.10748 -0.09405,0.0381 -0.206016,0.0381 -0.246325,0 -0.418752,-0.13884 -0.170187,-0.13883 -0.170187,-0.55982 v -1.12638 h 0.295589 v 1.00097 q 0,0.38964 0.103008,0.4725 0.103008,0.0806 0.255282,0.0806 0.132119,0 0.248563,-0.0761 0.118684,-0.0784 0.185863,-0.21722 0.06942,-0.14107 0.06942,-0.3874 z"
         style="font-style:normal;font-variant:normal;font-weight:normal;font-stretch:normal;font-size:4.58611px;font-family:'Apple Symbols';-inkscape-font-specification:'Apple Symbols';fill:#faed1f;fill-opacity:1;stroke-width:0.264583"
         id="path1827" />
      <path
         d="m 21.750798,294.01276 h -0.295589 v -1.77578 h 0.295589 v 0.30679 q 0.09405,-0.14556 0.181384,-0.21498 0.08957,-0.0694 0.185863,-0.10524 0.09629,-0.0358 0.214974,-0.0358 0.165709,0 0.297829,0.0694 0.134358,0.0672 0.206016,0.20153 0.0739,0.13212 0.0739,0.42323 v 1.13086 h -0.295589 v -1.00322 q 0,-0.2396 -0.03135,-0.33813 -0.03135,-0.0985 -0.125401,-0.15451 -0.09181,-0.0582 -0.199299,-0.0582 -0.12988,0 -0.248564,0.0761 -0.116444,0.0761 -0.188102,0.21497 -0.07166,0.1366 -0.07166,0.38964 z"
         style="font-style:normal;font-variant:normal;font-weight:normal;font-stretch:normal;font-size:4.58611px;font-family:'Apple Symbols';-inkscape-font-specification:'Apple Symbols';fill:#faed1f;fill-opacity:1;stroke-width:0.264583"
         id="path1829" />
      <path
         d="m 24.516348,293.55594 h 0.295589 v 0.0157 q 0,0.11869 -0.09405,0.24185 -0.09405,0.12092 -0.248564,0.18586 -0.154512,0.0627 -0.353811,0.0627 -0.405315,0 -0.627007,-0.262 -0.219453,-0.262 -0.219453,-0.66283 0,-0.4098 0.232889,-0.67852 0.232888,-0.27095 0.600135,-0.27095 0.201538,0 0.365008,0.0873 0.165709,0.0873 0.25976,0.2732 0.09629,0.18362 0.09629,0.51504 v 0.0985 h -1.260733 q 0,0.28439 0.152273,0.47025 0.154513,0.18363 0.42547,0.18363 0.19482,0 0.284392,-0.0739 0.09181,-0.0761 0.09181,-0.17019 z m -0.936032,-0.61581 h 0.958425 v -0.0358 q 0,-0.12317 -0.06046,-0.23961 -0.05822,-0.11868 -0.16347,-0.17467 -0.105248,-0.056 -0.244085,-0.056 -0.165709,0 -0.306786,0.13436 -0.138837,0.13212 -0.183623,0.37173 z"
         style="font-style:normal;font-variant:normal;font-weight:normal;font-stretch:normal;font-size:4.58611px;font-family:'Apple Symbols';-inkscape-font-specification:'Apple Symbols';fill:#faed1f;fill-opacity:1;stroke-width:0.264583"
         id="path1831" />
    </g>
    <g
       aria-label="IN"
       id="text1836"
       style="font-style:normal;font-weight:normal;font-size:2.82222px;line-height:1.25;font-family:sans-serif;fill:#ffffff;fill-opacity:1;stroke:none;stroke-width:0.264583">
      <path
         d="M 9.5488406,239.29694 H 8.7385548 v -0.20947 H 9.007272 V 237.4545 H 8.7385548 v -0.20946 h 0.8102858 v 0.20946 H 9.2801234 v 1.63297 h 0.2687172 z"
         style="font-size:2.82222px;fill:#ffffff;fill-opacity:1;stroke-width:0.264583"
         id="path1862" />
      <path
         d="m 11.581445,239.29694 h -0.337619 l -0.972894,-1.83555 v 1.83555 h -0.254937 v -2.0519 h 0.423058 l 0.887456,1.67569 v -1.67569 h 0.254936 z"
         style="font-size:2.82222px;fill:#ffffff;fill-opacity:1;stroke-width:0.264583"
         id="path1864" />
    </g>
    <g
       aria-label="OUT"
       id="text1836-9"
       style="font-style:normal;font-weight:normal;font-size:2.82222px;line-height:1.25;font-family:sans-serif;display:inline;fill:#ffffff;fill-opacity:1;stroke:none;stroke-width:0.264583">
      <path
         d="m 8.8722243,269.48612 q 0.1254014,0.1378 0.1915472,0.33761 0.067524,0.19982 0.067524,0.45338 0,0.25356 -0.068902,0.45475 -0.067524,0.19982 -0.1901691,0.33349 -0.1267794,0.13918 -0.3004121,0.20946 -0.1722547,0.0703 -0.3941186,0.0703 -0.2163519,0 -0.3941187,-0.0717 -0.1763887,-0.0717 -0.3004121,-0.20808 -0.1240233,-0.13643 -0.1915471,-0.33487 -0.066146,-0.19843 -0.066146,-0.45337 0,-0.2508 0.066146,-0.44924 0.066146,-0.19982 0.1929252,-0.34175 0.1212672,-0.13505 0.3004121,-0.20671 0.1805228,-0.0717 0.3927406,-0.0717 0.2204859,0 0.3954966,0.073 0.1763888,0.0717 0.2990341,0.20533 z m -0.024805,0.79099 q 0,-0.39963 -0.1791448,-0.61598 -0.1791448,-0.21773 -0.4892032,-0.21773 -0.3128144,0 -0.4919593,0.21773 -0.1777668,0.21635 -0.1777668,0.61598 0,0.40376 0.181901,0.61874 0.1819009,0.21359 0.4878251,0.21359 0.3059243,0 0.4864471,-0.21359 0.1819009,-0.21498 0.1819009,-0.61874 z"
         style="font-size:2.82222px;fill:#ffffff;fill-opacity:1;stroke-width:0.264583"
         id="path1867" />
      <path
         d="m 11.108779,270.4783 q 0,0.22324 -0.04961,0.38999 -0.04823,0.16536 -0.159852,0.2756 -0.106109,0.10473 -0.248047,0.15297 -0.141937,0.0482 -0.330729,0.0482 -0.192925,0 -0.3362406,-0.051 -0.1433159,-0.051 -0.2411565,-0.15021 -0.1116211,-0.113 -0.1612304,-0.27285 -0.048231,-0.15985 -0.048231,-0.39274 v -1.22783 h 0.2728514 v 1.24161 q 0,0.16674 0.022049,0.26321 0.023427,0.0965 0.07717,0.17501 0.060634,0.0896 0.1639868,0.13505 0.10473,0.0455 0.250802,0.0455 0.14745,0 0.250803,-0.0441 0.103353,-0.0455 0.165365,-0.13642 0.05374,-0.0786 0.07579,-0.17915 0.02343,-0.10197 0.02343,-0.25218 v -1.2485 h 0.272852 z"
         style="font-size:2.82222px;fill:#ffffff;fill-opacity:1;stroke-width:0.264583"
         id="path1869" />
      <path
         d="m 13.09453,269.49301 h -0.733116 v 1.80936 h -0.272851 v -1.80936 h -0.733116 v -0.24254 h 1.739083 z"
         style="font-size:2.82222px;fill:#ffffff;fill-opacity:1;stroke-width:0.264583"
         id="path1871" />
    </g>
    <text
       xml:space="preserve"
       style="font-style:normal;font-weight:normal;font-size:10.5833px;line-height:1.25;font-family:sans-serif;fill:#000000;fill-opacity:1;stroke:none;stroke-width:0.264583"
       x="-36.64912"
       y="193.73024"
       id="text877"><tspan
         sodipodi:role="line"
         id="tspan875"
         x="-36.64912"
         y="193.73024"
         style="stroke-width:0.264583" /></text>
    <g
       aria-label="DISI"
       id="text1114"
       style="font-style:normal;font-weight:normal;font-size:2.82222px;line-height:1.25;font-family:sans-serif;fill:#faed1f;fill-opacity:1;stroke:none;stroke-width:0.264583">
      <path
         d="m 8.8832483,176.28494 q 0,0.27974 -0.1226453,0.50712 -0.1212672,0.22737 -0.3238387,0.35278 -0.1405598,0.0868 -0.3141925,0.1254 -0.1722546,0.0386 -0.4547522,0.0386 h -0.518142 v -2.05189 h 0.5126298 q 0.3004121,0 0.4768009,0.0441 0.1777668,0.0427 0.3004121,0.11851 0.2094616,0.13092 0.3265948,0.34865 0.1171331,0.21773 0.1171331,0.51676 z m -0.2852537,-0.004 q 0,-0.24116 -0.08406,-0.40652 -0.08406,-0.16537 -0.2508028,-0.26045 -0.1212673,-0.0689 -0.2576929,-0.0951 -0.1364257,-0.0276 -0.3265948,-0.0276 H 7.422529 v 1.58337 h 0.2563149 q 0.1970593,0 0.3431312,-0.0289 0.14745,-0.0289 0.2700953,-0.10749 0.1529621,-0.0978 0.2287542,-0.25769 0.07717,-0.15985 0.07717,-0.39963 z"
         style="font-size:2.82222px;fill:#faed1f;fill-opacity:1;stroke-width:0.264583"
         id="path1345" />
      <path
         d="M 10.050446,177.30882 H 9.24016 v -0.20946 h 0.2687173 v -1.63297 H 9.24016 v -0.20946 h 0.810286 v 0.20946 H 9.7817286 v 1.63297 h 0.2687174 z"
         style="font-size:2.82222px;fill:#faed1f;fill-opacity:1;stroke-width:0.264583"
         id="path1347" />
      <path
         d="m 12.008637,176.72316 q 0,0.11989 -0.0565,0.23702 -0.05512,0.11713 -0.155718,0.19844 -0.110243,0.0882 -0.257693,0.1378 -0.146072,0.0496 -0.352778,0.0496 -0.221864,0 -0.39963,-0.0413 -0.176389,-0.0413 -0.359668,-0.12265 v -0.34175 h 0.01929 q 0.155719,0.12954 0.359668,0.19982 0.20395,0.0703 0.383094,0.0703 0.253559,0 0.394119,-0.0951 0.141938,-0.0951 0.141938,-0.25356 0,-0.13642 -0.06752,-0.20119 -0.06615,-0.0648 -0.202571,-0.1006 -0.103353,-0.0276 -0.22462,-0.0455 -0.11989,-0.0179 -0.254937,-0.0455 -0.272852,-0.0579 -0.405143,-0.19706 -0.130914,-0.14056 -0.130914,-0.36518 0,-0.25769 0.21773,-0.42168 0.21773,-0.16536 0.552593,-0.16536 0.216352,0 0.396875,0.0413 0.180523,0.0413 0.319704,0.10197 v 0.32246 h -0.01929 q -0.117133,-0.0992 -0.30868,-0.16398 -0.19017,-0.0661 -0.389985,-0.0661 -0.219108,0 -0.352778,0.0909 -0.132291,0.0909 -0.132291,0.23427 0,0.12816 0.06615,0.20119 0.06615,0.073 0.232888,0.11162 0.08819,0.0193 0.250803,0.0469 0.162608,0.0276 0.275607,0.0565 0.228754,0.0606 0.344509,0.18328 0.115756,0.12264 0.115756,0.34313 z"
         style="font-size:2.82222px;fill:#faed1f;fill-opacity:1;stroke-width:0.264583"
         id="path1349" />
      <path
         d="m 13.170322,177.30882 h -0.810286 v -0.20946 h 0.268717 v -1.63297 h -0.268717 v -0.20946 h 0.810286 v 0.20946 h -0.268717 v 1.63297 h 0.268717 z"
         style="font-size:2.82222px;fill:#faed1f;fill-opacity:1;stroke-width:0.264583"
         id="path1351" />
    </g>
    <g
       aria-label="दिसि"
       id="text1207"
       style="font-style:normal;font-weight:normal;font-size:10.5833px;line-height:1.25;font-family:sans-serif;fill:#faed1f;fill-opacity:1;stroke:none;stroke-width:0.264583">
      <path
         d="m 3.9821021,179.88171 v 0.7338 H 2.4163112 v 5.86526 H 2.183768 l -0.5787742,-0.66146 v -5.2038 H 0.45261305 v -0.7338 H 1.7806931 q -0.6304504,-0.60461 -0.6304504,-1.33842 0,-0.84232 0.775144,-1.30224 0.651121,-0.38757 1.550288,-0.38757 1.3590859,0 2.4804609,0.75964 1.121375,0.75447 2.0050392,2.26859 H 7.6097761 q -0.8733289,-1.16272 -1.8655132,-1.74149 -0.9921844,-0.58394 -2.1032241,-0.58394 -0.8371556,0 -1.2557333,0.31522 -0.4185778,0.31006 -0.4185778,0.93017 0,0.55294 0.3255605,1.08004 z"
         style="fill:#faed1f;fill-opacity:1;stroke-width:0.264583"
         id="path1354" />
      <path
         d="m 9.6303182,179.88171 v 0.7338 H 8.1472093 l 0.1033525,1.71565 H 6.6847709 q -0.8526584,0 -1.2815714,0.28939 -0.4237454,0.28422 -0.4237454,0.85783 0,0.42891 0.3513986,0.78548 0.3565663,0.3514 0.8939994,0.3514 0.3100576,0 0.5426009,-0.10853 -0.1085202,-0.15502 -0.1085202,-0.42891 0,-0.21704 0.2118727,-0.39791 0.2118727,-0.18603 0.5167627,-0.18603 0.4392482,0 0.7183001,0.25321 0.2842195,0.25322 0.2842195,0.62529 0,0.3514 -0.527098,0.70279 l 0.9715139,1.27124 -0.5529361,0.12402 -0.9456757,-1.20405 q -0.2170403,0.0517 -0.4340807,0.0517 -0.6304504,0 -1.2195599,-0.41858 -0.5839418,-0.42374 -0.8888318,-0.98701 -0.2997223,-0.56844 -0.2997223,-1.02836 0,-0.64079 0.4754216,-0.96118 0.4805893,-0.32039 1.607132,-0.32039 h 0.9198375 v -0.98702 H 3.8425762 v -0.7338 z m -1.4779413,0 z m 0.2687166,6.43886 z"
         style="fill:#faed1f;fill-opacity:1;stroke-width:0.264583"
         id="path1356" />
      <path
         d="m 13.015114,179.88171 v 0.7338 h -1.565791 v 5.86526 h -0.232544 l -0.578774,-0.66146 v -5.2038 H 9.4856245 v -0.7338 h 1.3280805 q -0.630451,-0.60461 -0.630451,-1.33842 0,-0.86816 0.899167,-1.32808 0.713133,-0.36173 1.669144,-0.36173 1.503779,0 2.744009,0.75964 1.245398,0.75447 2.22208,2.26859 h -0.351399 q -0.987016,-1.16272 -2.108391,-1.74149 -1.121375,-0.58394 -2.371941,-0.58394 -0.945676,0 -1.41593,0.31522 -0.470254,0.31006 -0.470254,0.93017 0,0.55294 0.325561,1.08004 z"
         style="fill:#faed1f;fill-opacity:1;stroke-width:0.264583"
         id="path1358" />
      <path
         d="m 19.867387,179.88171 v 0.7338 h -1.565791 v 5.88076 h -0.232543 l -0.578775,-0.66146 v -2.70783 q -0.733803,0.3669 -1.136878,0.3669 -0.558103,0 -1.297074,-0.28422 -0.320393,0.66146 -0.651121,0.97668 0.506428,0.62012 0.940508,1.12138 0.439249,0.50126 0.80615,0.87849 l -0.149861,0.1757 q -0.754474,-0.79581 -1.271236,-1.38492 -0.516763,-0.59428 -0.795815,-0.98185 -0.558104,-0.78031 -0.558104,-1.2299 0,-0.26354 0.118856,-0.39273 0.124023,-0.13436 0.366901,-0.13436 0.28422,0 0.651121,0.1757 0.242879,-0.35657 0.242879,-0.98185 0,-0.38241 -0.217041,-0.81649 h -1.663975 v -0.7338 z m -2.377109,0.7338 H 15.20102 q 0.180867,0.49093 0.180867,1.0542 0,0.40824 -0.139526,0.99735 0.749306,0.25838 1.21956,0.25838 0.470254,0 0.749305,-0.23771 0.279052,-0.24288 0.279052,-0.54777 z m 0.811318,5.70506 z m 0,-6.43886 z"
         style="fill:#faed1f;fill-opacity:1;stroke-width:0.264583"
         id="path1360" />
    </g>
  </g>
  <g
     inkscape:groupmode="layer"
     id="layer2"
     inkscape:label="components"
     style="display:none">
    <circle
       style="display:inline;opacity:1;vector-effect:none;fill:#ff0000;fill-opacity:1;fill-rule:evenodd;stroke:none;stroke-width:1;stroke-linecap:butt;stroke-linejoin:miter;stroke-miterlimit:4;stroke-dasharray:none;stroke-dashoffset:0;stroke-opacity:1;paint-order:normal"
       id="path4954"
       cx="10.16"
       cy="49.767429"
       r="4"
       inkscape:label="pitch" />
    <circle
       r="4"
       cy="77.477875"
       cx="10.16"
       id="circle4956"
       style="display:inline;opacity:1;vector-effect:none;fill:#00ff00;fill-opacity:1;fill-rule:evenodd;stroke:none;stroke-width:1;stroke-linecap:butt;stroke-linejoin:miter;stroke-miterlimit:4;stroke-dasharray:none;stroke-dashoffset:0;stroke-opacity:1;paint-order:normal"
       inkscape:label="pitch" />
    <circle
       style="display:inline;opacity:1;vector-effect:none;fill:#0000ff;fill-opacity:1;fill-rule:evenodd;stroke:none;stroke-width:1;stroke-linecap:butt;stroke-linejoin:miter;stroke-miterlimit:4;stroke-dasharray:none;stroke-dashoffset:0;stroke-opacity:1;paint-order:normal"
       id="circle4958"
       cx="10.16"
       cy="108.71259"
       r="4"
       inkscape:label="sine" />
    <circle
       style="display:inline;vector-effect:none;fill:#ff0000;fill-opacity:1;fill-rule:evenodd;stroke:none;stroke-width:1;stroke-linecap:butt;stroke-linejoin:miter;stroke-miterlimit:4;stroke-dasharray:none;stroke-dashoffset:0;stroke-opacity:1;paint-order:normal"
       id="circle61-5"
       cx="10.16"
       cy="24.460236"
       r="4"
       inkscape:label="pitch" />
  </g>
</svg>
