<?xml version="1.0" encoding="UTF-8" standalone="no"?>
<svg
   xmlns:dc="http://purl.org/dc/elements/1.1/"
   xmlns:cc="http://creativecommons.org/ns#"
   xmlns:rdf="http://www.w3.org/1999/02/22-rdf-syntax-ns#"
   xmlns:svg="http://www.w3.org/2000/svg"
   xmlns="http://www.w3.org/2000/svg"
   xmlns:sodipodi="http://sodipodi.sourceforge.net/DTD/sodipodi-0.dtd"
   xmlns:inkscape="http://www.inkscape.org/namespaces/inkscape"
   width="30.48mm"
   height="128.5mm"
   viewBox="0 0 30.480002 128.50002"
   version="1.1"
   id="svg8"
   inkscape:version="1.0.2 (e86c8708, 2021-01-15)"
   sodipodi:docname="MyQuantizer.svg">
  <defs
     id="defs2" />
  <sodipodi:namedview
     id="base"
     pagecolor="#ffffff"
     bordercolor="#666666"
     borderopacity="1.0"
     inkscape:pageopacity="0.0"
     inkscape:pageshadow="2"
     inkscape:zoom="0.98994949"
     inkscape:cx="215.93329"
     inkscape:cy="213.40006"
     inkscape:document-units="mm"
     inkscape:current-layer="layer1"
     showgrid="false"
     units="mm"
     inkscape:snap-bbox="true"
     inkscape:snap-page="true"
     inkscape:bbox-nodes="false"
     inkscape:snap-bbox-edge-midpoints="false"
     inkscape:window-width="1901"
     inkscape:window-height="1189"
     inkscape:window-x="0"
     inkscape:window-y="23"
     inkscape:window-maximized="0"
     inkscape:snap-bbox-midpoints="true"
     inkscape:snap-nodes="false"
     inkscape:document-rotation="0" />
  <metadata
     id="metadata5">
    <rdf:RDF>
      <cc:Work
         rdf:about="">
        <dc:format>image/svg+xml</dc:format>
        <dc:type
           rdf:resource="http://purl.org/dc/dcmitype/StillImage" />
        <dc:title />
      </cc:Work>
    </rdf:RDF>
  </metadata>
  <g
     inkscape:label="Layer 1"
     inkscape:groupmode="layer"
     id="layer1"
     transform="translate(0,-168.49998)"
     style="display:inline">
    <rect
       style="display:inline;opacity:1;vector-effect:none;fill:#e6e6e6;fill-opacity:1;fill-rule:evenodd;stroke:none;stroke-width:0.649358;stroke-linecap:butt;stroke-linejoin:miter;stroke-miterlimit:4;stroke-dasharray:none;stroke-dashoffset:0;stroke-opacity:1;paint-order:normal"
       id="rect420"
       width="30.48"
       height="128.5"
       x="5.9211732e-17"
       y="168.49997" />
    <g
       aria-label="Pitch"
       style="font-style:normal;font-variant:normal;font-weight:300;font-stretch:normal;font-size:4.93889px;line-height:6.61458px;font-family:'Gotham Rounded';-inkscape-font-specification:'Gotham Rounded Light';font-variant-ligatures:normal;font-variant-caps:normal;font-variant-numeric:normal;font-feature-settings:normal;text-align:center;letter-spacing:0px;word-spacing:0px;writing-mode:lr-tb;text-anchor:middle;display:inline;fill:#000000;fill-opacity:1;stroke:none;stroke-width:0.264583px;stroke-linecap:butt;stroke-linejoin:miter;stroke-opacity:1"
       id="text4944"
       transform="translate(0,10.583334)" />
    <g
       aria-label="1V/oct"
       style="font-style:normal;font-variant:normal;font-weight:300;font-stretch:normal;font-size:4.93889px;line-height:6.61458px;font-family:'Gotham Rounded';-inkscape-font-specification:'Gotham Rounded Light';font-variant-ligatures:normal;font-variant-caps:normal;font-variant-numeric:normal;font-feature-settings:normal;text-align:center;letter-spacing:0px;word-spacing:0px;writing-mode:lr-tb;text-anchor:middle;display:inline;fill:#000000;fill-opacity:1;stroke:none;stroke-width:0.264583px;stroke-linecap:butt;stroke-linejoin:miter;stroke-opacity:1"
       id="text4948"
       transform="translate(0,4.7625002)">
      <path
         d="m 9.6908279,252.06539 c 0,0.0593 0.0508,0.11007 0.1100667,0.11007 0.059267,0 0.1058333,-0.0508 0.1058333,-0.11007 v -2.794 c 0,-0.055 -0.0381,-0.10583 -0.1058333,-0.10583 h -0.00847 c -0.046567,0 -0.0889,0.0127 -0.1354666,0.0296 l -0.5164667,0.1905 c -0.046567,0.0169 -0.080433,0.0423 -0.080433,0.0931 0,0.0508 0.042333,0.0931 0.093133,0.0931 0.016933,0 0.033867,-0.004 0.055033,-0.0127 l 0.4826,-0.1651 z"
         style="font-style:normal;font-variant:normal;font-weight:300;font-stretch:normal;font-size:4.23333px;font-family:'Gotham Rounded';-inkscape-font-specification:'Gotham Rounded Light';text-align:center;text-anchor:middle;stroke-width:0.264583px"
         id="path5057"
         inkscape:connector-curvature="0" />
      <path
         d="m 11.938463,252.18816 h 0.0085 c 0.06773,0 0.105833,-0.0381 0.131233,-0.0974 l 1.210733,-2.7686 c 0.0085,-0.0169 0.0085,-0.0254 0.0085,-0.0423 0,-0.0508 -0.04657,-0.1016 -0.105833,-0.1016 -0.0508,0 -0.0889,0.0381 -0.110067,0.0847 l -1.134533,2.65854 -1.1303,-2.6543 c -0.02117,-0.0508 -0.05927,-0.0889 -0.1143,-0.0889 -0.0635,0 -0.110067,0.055 -0.110067,0.10583 0,0.0212 0,0.0296 0.0085,0.0466 l 1.2065,2.76013 c 0.0254,0.0593 0.0635,0.0974 0.131233,0.0974 z"
         style="font-style:normal;font-variant:normal;font-weight:300;font-stretch:normal;font-size:4.23333px;font-family:'Gotham Rounded';-inkscape-font-specification:'Gotham Rounded Light';text-align:center;text-anchor:middle;stroke-width:0.264583px"
         id="path5059"
         inkscape:connector-curvature="0" />
      <path
         d="m 13.000435,252.62842 c 0,0.0508 0.0381,0.0889 0.0889,0.0889 0.04233,0 0.07197,-0.0254 0.0889,-0.0593 l 1.913466,-3.75074 c 0.0085,-0.0169 0.0127,-0.0381 0.0127,-0.055 0,-0.0508 -0.0381,-0.0889 -0.0889,-0.0889 -0.04233,0 -0.07197,0.0254 -0.0889,0.0593 l -1.913466,3.75073 c -0.0085,0.0169 -0.0127,0.0381 -0.0127,0.055 z"
         style="font-style:normal;font-variant:normal;font-weight:300;font-stretch:normal;font-size:4.23333px;font-family:'Gotham Rounded';-inkscape-font-specification:'Gotham Rounded Light';text-align:center;text-anchor:middle;stroke-width:0.264583px"
         id="path5061"
         inkscape:connector-curvature="0" />
      <path
         d="m 16.153937,252.20932 c 0.643467,0 1.113367,-0.52493 1.113367,-1.1303 v -0.008 c 0,-0.60537 -0.465667,-1.12184 -1.1049,-1.12184 -0.643467,0 -1.113367,0.52494 -1.113367,1.1303 v 0.008 c 0,0.60537 0.465667,1.12183 1.1049,1.12183 z m 0.0085,-0.19473 c -0.499534,0 -0.889,-0.41487 -0.889,-0.93557 v -0.008 c 0,-0.508 0.3683,-0.9271 0.880533,-0.9271 0.499533,0 0.889,0.41486 0.889,0.93556 v 0.008 c 0,0.508 -0.3683,0.9271 -0.880533,0.9271 z"
         style="font-style:normal;font-variant:normal;font-weight:300;font-stretch:normal;font-size:4.23333px;font-family:'Gotham Rounded';-inkscape-font-specification:'Gotham Rounded Light';text-align:center;text-anchor:middle;stroke-width:0.264583px"
         id="path5063"
         inkscape:connector-curvature="0" />
      <path
         d="m 18.861683,252.20932 c 0.3683,0 0.618066,-0.1524 0.833966,-0.37253 0.01693,-0.0169 0.0254,-0.0423 0.0254,-0.0635 0,-0.0508 -0.0508,-0.1016 -0.1016,-0.1016 -0.02963,0 -0.0508,0.0169 -0.06773,0.0339 -0.173567,0.17356 -0.397933,0.30903 -0.677333,0.30903 -0.4953,0 -0.889,-0.41487 -0.889,-0.93557 v -0.008 c 0,-0.51647 0.381,-0.9271 0.872066,-0.9271 0.2921,0 0.4953,0.1397 0.668867,0.3048 0.01693,0.0169 0.04657,0.0254 0.07197,0.0254 0.05927,0 0.105834,-0.0466 0.105834,-0.10584 0,-0.0296 -0.0127,-0.0593 -0.02963,-0.0762 -0.194733,-0.18203 -0.440266,-0.3429 -0.812799,-0.3429 -0.618067,0 -1.100667,0.52494 -1.100667,1.1303 v 0.008 c 0,0.60537 0.478367,1.12183 1.100667,1.12183 z"
         style="font-style:normal;font-variant:normal;font-weight:300;font-stretch:normal;font-size:4.23333px;font-family:'Gotham Rounded';-inkscape-font-specification:'Gotham Rounded Light';text-align:center;text-anchor:middle;stroke-width:0.264583px"
         id="path5065"
         inkscape:connector-curvature="0" />
      <path
         d="m 21.043172,252.19662 c 0.122767,0 0.220133,-0.0254 0.3048,-0.055 0.04233,-0.0169 0.06773,-0.0466 0.06773,-0.0889 0,-0.0508 -0.04657,-0.0931 -0.09313,-0.0931 -0.02963,0 -0.09737,0.0423 -0.245533,0.0423 -0.249767,0 -0.4318,-0.11007 -0.4318,-0.4191 v -1.39277 h 0.677333 c 0.0508,0 0.09737,-0.0423 0.09737,-0.0931 0,-0.0508 -0.04657,-0.0974 -0.09737,-0.0974 h -0.677333 v -0.60113 c 0,-0.0593 -0.04657,-0.10583 -0.105834,-0.10583 -0.05927,0 -0.1016,0.0466 -0.1016,0.10583 v 0.60113 h -0.232833 c -0.0508,0 -0.09737,0.0423 -0.09737,0.0931 0,0.0508 0.04657,0.0974 0.09737,0.0974 h 0.232833 v 1.41394 c 0,0.41063 0.270934,0.59266 0.605367,0.59266 z"
         style="font-style:normal;font-variant:normal;font-weight:300;font-stretch:normal;font-size:4.23333px;font-family:'Gotham Rounded';-inkscape-font-specification:'Gotham Rounded Light';text-align:center;text-anchor:middle;stroke-width:0.264583px"
         id="path5067"
         inkscape:connector-curvature="0" />
    </g>
    <g
       aria-label="Quantizer"
       id="text124"
       style="font-style:normal;font-weight:normal;font-size:4.23333px;line-height:1.25;font-family:sans-serif;fill:#000000;fill-opacity:1;stroke:none;stroke-width:0.264583">
      <path
         d="m 7.7020424,178.60889 q -0.1240234,0.031 -0.2459796,0.0434 -0.1198893,0.0145 -0.2459797,0.0145 -0.3596676,0 -0.5787755,-0.19844 -0.2170408,-0.19637 -0.2356443,-0.5643 -0.049609,0.008 -0.097152,0.0103 -0.045475,0.004 -0.088883,0.004 -0.3245278,0 -0.5911779,-0.10748 -0.2645831,-0.10749 -0.4506181,-0.31213 -0.186035,-0.20464 -0.2873208,-0.50229 -0.099219,-0.29766 -0.099219,-0.68006 0,-0.37621 0.099219,-0.67386 0.099219,-0.29973 0.2893878,-0.51263 0.1819009,-0.20257 0.4506181,-0.31006 0.2707843,-0.10749 0.5891109,-0.10749 0.3307289,0 0.5932449,0.10956 0.2645831,0.10748 0.4485511,0.30799 0.188102,0.2067 0.2873207,0.50643 0.1012857,0.29972 0.1012857,0.68006 0,0.5643 -0.2315102,0.95084 -0.2294432,0.38654 -0.6180496,0.54157 0.00827,0.23565 0.111621,0.36587 0.1033527,0.13022 0.3762041,0.13022 0.084749,0 0.2005044,-0.0269 0.1178221,-0.0248 0.1674315,-0.0455 h 0.05581 z m -0.4878251,-2.29236 q 0,-0.59945 -0.2687173,-0.92398 -0.2687172,-0.32659 -0.7338047,-0.32659 -0.4692216,0 -0.7379388,0.32659 -0.2666502,0.32453 -0.2666502,0.92398 0,0.60564 0.2728514,0.9281 0.2728513,0.3204 0.7317376,0.3204 0.4588863,0 0.7296706,-0.3204 0.2728514,-0.32246 0.2728514,-0.9281 z"
         style="font-size:4.23333px;stroke-width:0.264583"
         id="path145" />
      <path
         d="M 10.172174,177.85442 H 9.7835672 v -0.25632 q -0.1963702,0.15503 -0.3762041,0.23771 -0.1798338,0.0827 -0.3968746,0.0827 -0.3638018,0 -0.5663733,-0.22117 -0.2025714,-0.22324 -0.2025714,-0.65319 v -1.49862 h 0.3886064 v 1.31465 q 0,0.1757 0.016537,0.30179 0.016536,0.12403 0.07028,0.21291 0.055811,0.0909 0.1446939,0.13229 0.088883,0.0413 0.2583819,0.0413 0.1508951,0 0.3286618,-0.0785 0.1798339,-0.0785 0.334863,-0.2005 v -1.72393 h 0.3886068 z"
         style="font-size:4.23333px;stroke-width:0.264583"
         id="path147" />
      <path
         d="m 12.731189,177.85442 h -0.38654 v -0.24598 q -0.05168,0.0351 -0.140559,0.0992 -0.08682,0.062 -0.169499,0.0992 -0.09715,0.0476 -0.223242,0.0786 -0.12609,0.0331 -0.295589,0.0331 -0.312125,0 -0.529166,-0.2067 -0.217041,-0.20671 -0.217041,-0.5271 0,-0.26252 0.111621,-0.42375 0.113688,-0.16329 0.322461,-0.25631 0.210839,-0.093 0.506428,-0.12609 0.295589,-0.0331 0.634586,-0.0496 v -0.06 q 0,-0.13229 -0.04754,-0.2191 -0.04547,-0.0868 -0.132291,-0.13643 -0.08268,-0.0475 -0.198438,-0.0641 -0.115755,-0.0165 -0.241845,-0.0165 -0.152962,0 -0.341064,0.0413 -0.188103,0.0393 -0.388607,0.11575 h -0.02067 v -0.39481 q 0.113688,-0.031 0.328661,-0.0682 0.214974,-0.0372 0.423747,-0.0372 0.243912,0 0.423746,0.0413 0.181901,0.0393 0.314193,0.13642 0.130224,0.0951 0.198437,0.24598 0.06821,0.1509 0.06821,0.37414 z m -0.38654,-0.56844 v -0.64286 q -0.177766,0.0103 -0.419612,0.031 -0.239778,0.0207 -0.380338,0.0599 -0.167432,0.0475 -0.270784,0.14883 -0.103353,0.0992 -0.103353,0.27492 0,0.19844 0.119889,0.29972 0.119889,0.0992 0.365869,0.0992 0.204638,0 0.374137,-0.0786 0.169498,-0.0806 0.314192,-0.19223 z"
         style="font-size:4.23333px;stroke-width:0.264583"
         id="path149" />
      <path
         d="M 15.414226,177.85442 H 15.02562 v -1.31465 q 0,-0.15916 -0.0186,-0.29766 -0.0186,-0.14056 -0.06821,-0.21911 -0.05168,-0.0868 -0.148828,-0.12815 -0.09715,-0.0434 -0.25218,-0.0434 -0.159164,0 -0.332796,0.0786 -0.173633,0.0786 -0.332796,0.2005 v 1.72393 h -0.388607 v -2.30891 h 0.388607 v 0.25632 q 0.181901,-0.1509 0.376204,-0.23564 0.194303,-0.0848 0.398942,-0.0848 0.374137,0 0.570507,0.22531 0.19637,0.2253 0.19637,0.64905 z"
         style="font-size:4.23333px;stroke-width:0.264583"
         id="path151" />
      <path
         d="m 17.361393,177.83375 q -0.109554,0.0289 -0.239778,0.0475 -0.128158,0.0186 -0.229444,0.0186 -0.353466,0 -0.537434,-0.19017 -0.183968,-0.19017 -0.183968,-0.60978 v -1.22783 h -0.262516 v -0.3266 h 0.262516 v -0.66352 h 0.388607 v 0.66352 h 0.802017 v 0.3266 h -0.802017 v 1.05213 q 0,0.1819 0.0083,0.28525 0.0083,0.10129 0.05788,0.19017 0.04548,0.0827 0.124024,0.12196 0.08061,0.0372 0.243912,0.0372 0.09509,0 0.198438,-0.0269 0.103352,-0.0289 0.148828,-0.0476 h 0.02067 z"
         style="font-size:4.23333px;stroke-width:0.264583"
         id="path153" />
      <path
         d="m 18.250227,175.15898 h -0.438215 v -0.40308 h 0.438215 z m -0.0248,2.69544 h -0.388607 v -2.30891 h 0.388607 z"
         style="font-size:4.23333px;stroke-width:0.264583"
         id="path155" />
      <path
         d="m 20.672816,177.85442 h -1.864484 v -0.28732 l 1.345653,-1.69706 h -1.316714 v -0.32453 h 1.800405 v 0.27699 l -1.351854,1.70325 h 1.386994 z"
         style="font-size:4.23333px;stroke-width:0.264583"
         id="path157" />
      <path
         d="m 23.155349,176.74027 h -1.701187 q 0,0.21291 0.06408,0.37207 0.06408,0.1571 0.1757,0.25838 0.107487,0.0992 0.254247,0.14883 0.148828,0.0496 0.326595,0.0496 0.235645,0 0.473356,-0.093 0.239778,-0.0951 0.341064,-0.18603 h 0.02067 v 0.42375 q -0.196371,0.0827 -0.401009,0.13849 -0.204639,0.0558 -0.429948,0.0558 -0.574641,0 -0.897102,-0.31006 -0.32246,-0.31212 -0.32246,-0.8847 0,-0.56637 0.307991,-0.89917 0.310058,-0.33279 0.81442,-0.33279 0.467154,0 0.719335,0.27285 0.254248,0.27285 0.254248,0.77514 z m -0.378271,-0.29765 q -0.0021,-0.30593 -0.155029,-0.47336 -0.150895,-0.16743 -0.460954,-0.16743 -0.312125,0 -0.49816,0.18397 -0.183968,0.18397 -0.208773,0.45682 z"
         style="font-size:4.23333px;stroke-width:0.264583"
         id="path159" />
      <path
         d="m 25.185198,175.96926 h -0.02067 q -0.08682,-0.0207 -0.169499,-0.0289 -0.08061,-0.0103 -0.192236,-0.0103 -0.179834,0 -0.347265,0.0806 -0.167432,0.0785 -0.322461,0.20464 v 1.63918 h -0.388606 v -2.30891 h 0.388606 v 0.34107 q 0.23151,-0.18604 0.40721,-0.26252 0.177767,-0.0785 0.361735,-0.0785 0.101285,0 0.146761,0.006 0.04547,0.004 0.136425,0.0186 z"
         style="font-size:4.23333px;stroke-width:0.264583"
         id="path161" />
    </g>
    <g
       aria-label="Key"
       id="text113"
       style="font-style:normal;font-weight:normal;font-size:3.88056px;line-height:0.95;font-family:sans-serif;display:inline;fill:#000000;fill-opacity:1;stroke:none;stroke-width:0.264583">
      <path
         d="m 14.170661,223.89638 h -0.486965 l -1.11604,-1.25626 -0.280431,0.29938 v 0.95688 h -0.375171 v -2.82137 h 0.375171 v 1.47227 l 1.369944,-1.47227 h 0.454753 l -1.260045,1.32637 z"
         style="font-size:3.88056px;stroke-width:0.264583"
         id="path91" />
      <path
         d="m 16.336422,222.87508 h -1.559424 q 0,0.19516 0.05874,0.34106 0.05874,0.14401 0.161059,0.23685 0.09853,0.0909 0.233061,0.13643 0.136425,0.0455 0.299379,0.0455 0.216007,0 0.43391,-0.0853 0.219797,-0.0872 0.312643,-0.17053 h 0.01895 v 0.38843 q -0.180007,0.0758 -0.367592,0.12695 -0.187586,0.0512 -0.39412,0.0512 -0.526755,0 -0.822345,-0.28422 -0.295589,-0.28611 -0.295589,-0.81097 0,-0.51918 0.282325,-0.82424 0.284221,-0.30507 0.746553,-0.30507 0.428226,0 0.659393,0.25012 0.23306,0.25011 0.23306,0.71055 z m -0.346749,-0.27285 q -0.0019,-0.28044 -0.14211,-0.43391 -0.138321,-0.15348 -0.422542,-0.15348 -0.286115,0 -0.456647,0.16863 -0.168638,0.16864 -0.191376,0.41876 z"
         style="font-size:3.88056px;stroke-width:0.264583"
         id="path93" />
      <path
         d="m 18.706823,221.77988 -1.235413,2.89716 h -0.380855 l 0.394119,-0.88298 -0.843188,-2.01418 h 0.38654 l 0.649918,1.5689 0.655602,-1.5689 z"
         style="font-size:3.88056px;stroke-width:0.264583"
         id="path95" />
    </g>
    <g
       aria-label="Raga"
       id="text113-7"
       style="font-style:normal;font-weight:normal;font-size:3.88056px;line-height:0.95;font-family:sans-serif;display:inline;fill:#000000;fill-opacity:1;stroke:none;stroke-width:0.264583"
       transform="translate(0,2.6458334)">
      <path
         d="m 13.129234,196.84805 h -0.486965 l -0.943613,-1.12172 h -0.52865 v 1.12172 h -0.375172 v -2.82136 h 0.790134 q 0.255799,0 0.426331,0.0341 0.170532,0.0322 0.306958,0.11747 0.15348,0.0966 0.238746,0.24443 0.08716,0.1459 0.08716,0.37138 0,0.30507 -0.153479,0.5116 -0.15348,0.20464 -0.422542,0.30886 z m -0.877295,-2.02744 q 0,-0.12127 -0.04358,-0.21411 -0.04169,-0.0947 -0.140216,-0.15916 -0.08148,-0.0549 -0.19327,-0.0758 -0.111793,-0.0227 -0.263378,-0.0227 h -0.441489 v 1.06488 h 0.378961 q 0.178111,0 0.310748,-0.0303 0.132636,-0.0322 0.225481,-0.11748 0.08527,-0.0796 0.125058,-0.1819 0.04168,-0.10421 0.04168,-0.26338 z"
         style="font-size:3.88056px;stroke-width:0.264583"
         id="path82" />
      <path
         d="m 15.109305,196.84805 h -0.354329 v -0.22548 q -0.04737,0.0322 -0.128846,0.0909 -0.07958,0.0569 -0.155374,0.091 -0.08906,0.0436 -0.204639,0.072 -0.115583,0.0303 -0.270957,0.0303 -0.286116,0 -0.48507,-0.18948 -0.198955,-0.18948 -0.198955,-0.48317 0,-0.24064 0.10232,-0.38844 0.104214,-0.14969 0.295589,-0.23495 0.19327,-0.0853 0.464227,-0.11559 0.270957,-0.0303 0.581705,-0.0455 v -0.0549 q 0,-0.12127 -0.04358,-0.20085 -0.04169,-0.0796 -0.121268,-0.12506 -0.07579,-0.0436 -0.181901,-0.0587 -0.106109,-0.0152 -0.221692,-0.0152 -0.140216,0 -0.312643,0.0379 -0.172427,0.036 -0.356223,0.10611 h -0.01895 v -0.36191 q 0.104214,-0.0284 0.301274,-0.0625 0.197059,-0.0341 0.388435,-0.0341 0.223587,0 0.388435,0.0379 0.166742,0.036 0.28801,0.12506 0.119373,0.0872 0.181901,0.22548 0.06253,0.13832 0.06253,0.34296 z m -0.354329,-0.52107 v -0.58928 q -0.162953,0.009 -0.384645,0.0284 -0.219797,0.0189 -0.348644,0.0549 -0.153479,0.0436 -0.24822,0.13642 -0.09474,0.091 -0.09474,0.25201 0,0.18191 0.109899,0.27475 0.109899,0.0909 0.33538,0.0909 0.187586,0 0.34296,-0.072 0.155374,-0.0739 0.28801,-0.17622 z"
         style="font-size:3.88056px;stroke-width:0.264583"
         id="path84" />
      <path
         d="m 17.515707,196.60741 q 0,0.53813 -0.24443,0.79014 -0.24443,0.25201 -0.752237,0.25201 -0.168638,0 -0.329696,-0.0246 -0.159164,-0.0227 -0.314538,-0.0663 v -0.3638 h 0.01895 q 0.08716,0.0341 0.276641,0.0834 0.189481,0.0512 0.378961,0.0512 0.181902,0 0.301274,-0.0436 0.119373,-0.0436 0.185691,-0.12126 0.06632,-0.0739 0.09474,-0.17812 0.02842,-0.10421 0.02842,-0.23306 v -0.19327 q -0.161058,0.12885 -0.308853,0.19327 -0.1459,0.0625 -0.373276,0.0625 -0.378961,0 -0.602548,-0.27285 -0.221692,-0.27475 -0.221692,-0.77308 0,-0.27285 0.07579,-0.46991 0.07769,-0.19896 0.210323,-0.34296 0.123163,-0.13453 0.299379,-0.20843 0.176217,-0.0758 0.350539,-0.0758 0.183796,0 0.306959,0.0379 0.125057,0.036 0.263377,0.1118 l 0.02274,-0.0909 h 0.333486 z m -0.356224,-0.34106 v -1.15394 q -0.14211,-0.0644 -0.265272,-0.091 -0.121268,-0.0284 -0.242535,-0.0284 -0.293695,0 -0.462332,0.19706 -0.168638,0.19706 -0.168638,0.57223 0,0.35622 0.125057,0.54002 0.125057,0.1838 0.414962,0.1838 0.155374,0 0.310748,-0.0587 0.157269,-0.0606 0.28801,-0.16106 z"
         style="font-size:3.88056px;stroke-width:0.264583"
         id="path86" />
      <path
         d="m 19.861475,196.84805 h -0.354329 v -0.22548 q -0.04737,0.0322 -0.128847,0.0909 -0.07958,0.0569 -0.155374,0.091 -0.08905,0.0436 -0.204639,0.072 -0.115583,0.0303 -0.270957,0.0303 -0.286115,0 -0.48507,-0.18948 -0.198954,-0.18948 -0.198954,-0.48317 0,-0.24064 0.102319,-0.38844 0.104215,-0.14969 0.29559,-0.23495 0.19327,-0.0853 0.464227,-0.11559 0.270957,-0.0303 0.581705,-0.0455 v -0.0549 q 0,-0.12127 -0.04358,-0.20085 -0.04169,-0.0796 -0.121268,-0.12506 -0.07579,-0.0436 -0.181901,-0.0587 -0.106109,-0.0152 -0.221692,-0.0152 -0.140216,0 -0.312643,0.0379 -0.172427,0.036 -0.356223,0.10611 h -0.01895 v -0.36191 q 0.104214,-0.0284 0.301274,-0.0625 0.197059,-0.0341 0.388435,-0.0341 0.223586,0 0.388434,0.0379 0.166743,0.036 0.288011,0.12506 0.119372,0.0872 0.181901,0.22548 0.06253,0.13832 0.06253,0.34296 z m -0.354329,-0.52107 v -0.58928 q -0.162953,0.009 -0.384645,0.0284 -0.219798,0.0189 -0.348644,0.0549 -0.153479,0.0436 -0.24822,0.13642 -0.09474,0.091 -0.09474,0.25201 0,0.18191 0.109899,0.27475 0.109898,0.0909 0.33538,0.0909 0.187586,0 0.34296,-0.072 0.155374,-0.0739 0.28801,-0.17622 z"
         style="font-size:3.88056px;stroke-width:0.264583"
         id="path88" />
    </g>
    <g
       aria-label="Out"
       id="text113-1"
       style="font-style:normal;font-weight:normal;font-size:3.88056px;line-height:0.95;font-family:sans-serif;display:inline;fill:#000000;fill-opacity:1;stroke:none;stroke-width:0.264583">
      <path
         d="m 13.92536,284.62695 q 0.172427,0.18948 0.263378,0.46422 0.09284,0.27475 0.09284,0.62339 0,0.34865 -0.09474,0.62529 -0.09285,0.27475 -0.261483,0.45854 -0.174322,0.19138 -0.413068,0.28801 -0.23685,0.0966 -0.541914,0.0966 -0.297484,0 -0.541914,-0.0985 -0.242535,-0.0985 -0.413067,-0.28612 -0.170533,-0.18758 -0.263378,-0.46044 -0.09095,-0.27285 -0.09095,-0.62339 0,-0.34485 0.09095,-0.6177 0.09095,-0.27475 0.265273,-0.46991 0.166742,-0.1857 0.413067,-0.28423 0.248219,-0.0985 0.540019,-0.0985 0.303169,0 0.543809,0.10042 0.242535,0.0985 0.411173,0.28233 z m -0.03411,1.08761 q 0,-0.54949 -0.246324,-0.84697 -0.246325,-0.29938 -0.672656,-0.29938 -0.430121,0 -0.676445,0.29938 -0.24443,0.29748 -0.24443,0.84697 0,0.55518 0.250114,0.85077 0.250114,0.2937 0.670761,0.2937 0.420647,0 0.668866,-0.2937 0.250114,-0.29559 0.250114,-0.85077 z"
         style="font-size:3.88056px;stroke-width:0.264583"
         id="path98" />
      <path
         d="m 16.602719,287.1243 h -0.356224 v -0.23496 q -0.180006,0.14211 -0.344854,0.2179 -0.164848,0.0758 -0.363802,0.0758 -0.333486,0 -0.519177,-0.20275 -0.185691,-0.20464 -0.185691,-0.59876 v -1.37373 h 0.356223 v 1.2051 q 0,0.16106 0.01516,0.27664 0.01516,0.11369 0.06442,0.19516 0.05116,0.0834 0.132637,0.12127 0.08148,0.0379 0.23685,0.0379 0.138321,0 0.301274,-0.072 0.164848,-0.072 0.306958,-0.18379 v -1.58027 h 0.356224 z"
         style="font-size:3.88056px;stroke-width:0.264583"
         id="path100" />
      <path
         d="m 18.402783,287.10535 q -0.100425,0.0265 -0.219797,0.0436 -0.117478,0.017 -0.210324,0.017 -0.324011,0 -0.492649,-0.17432 -0.168637,-0.17432 -0.168637,-0.55897 v -1.12551 h -0.240641 v -0.29938 h 0.240641 v -0.60823 h 0.356223 v 0.60823 h 0.735184 v 0.29938 h -0.735184 v 0.96446 q 0,0.16674 0.0076,0.26148 0.0076,0.0928 0.05306,0.17432 0.04169,0.0758 0.113688,0.11179 0.0739,0.0341 0.223587,0.0341 0.08716,0 0.181901,-0.0246 0.09474,-0.0265 0.136426,-0.0436 h 0.01895 z"
         style="font-size:3.88056px;stroke-width:0.264583"
         id="path102" />
    </g>
  </g>
  <g
     inkscape:groupmode="layer"
     id="layer2"
     inkscape:label="components"
     style="display:none">
    <circle
       style="display:inline;opacity:1;vector-effect:none;fill:#ff0000;fill-opacity:1;fill-rule:evenodd;stroke:none;stroke-width:1;stroke-linecap:butt;stroke-linejoin:miter;stroke-miterlimit:4;stroke-dasharray:none;stroke-dashoffset:0;stroke-opacity:1;paint-order:normal"
       id="path4954"
       cx="15.24"
       cy="46.063263"
       r="4"
       inkscape:label="pitch" />
    <circle
       r="4"
       cy="77.477875"
       cx="15.24"
       id="circle4956"
       style="display:inline;opacity:1;vector-effect:none;fill:#00ff00;fill-opacity:1;fill-rule:evenodd;stroke:none;stroke-width:1;stroke-linecap:butt;stroke-linejoin:miter;stroke-miterlimit:4;stroke-dasharray:none;stroke-dashoffset:0;stroke-opacity:1;paint-order:normal"
       inkscape:label="pitch" />
    <circle
       style="display:inline;opacity:1;vector-effect:none;fill:#0000ff;fill-opacity:1;fill-rule:evenodd;stroke:none;stroke-width:1;stroke-linecap:butt;stroke-linejoin:miter;stroke-miterlimit:4;stroke-dasharray:none;stroke-dashoffset:0;stroke-opacity:1;paint-order:normal"
       id="circle4958"
       cx="15.24"
       cy="108.71259"
       r="4"
       inkscape:label="sine" />
    <circle
       style="display:inline;opacity:1;vector-effect:none;fill:#ff0000;fill-opacity:1;fill-rule:evenodd;stroke:none;stroke-width:1;stroke-linecap:butt;stroke-linejoin:miter;stroke-miterlimit:4;stroke-dasharray:none;stroke-dashoffset:0;stroke-opacity:1;paint-order:normal"
       id="circle61"
       cx="15.24"
       cy="46.063263"
       r="4"
       inkscape:label="pitch" />
    <circle
       style="display:inline;vector-effect:none;fill:#ff0000;fill-opacity:1;fill-rule:evenodd;stroke:none;stroke-width:1;stroke-linecap:butt;stroke-linejoin:miter;stroke-miterlimit:4;stroke-dasharray:none;stroke-dashoffset:0;stroke-opacity:1;paint-order:normal"
       id="circle61-5"
       cx="15.234364"
       cy="19.16857"
       r="4"
       inkscape:label="pitch" />
  </g>
</svg>
