<?xml version="1.0" encoding="UTF-8" standalone="no"?>
<svg
   xmlns:dc="http://purl.org/dc/elements/1.1/"
   xmlns:cc="http://creativecommons.org/ns#"
   xmlns:rdf="http://www.w3.org/1999/02/22-rdf-syntax-ns#"
   xmlns:svg="http://www.w3.org/2000/svg"
   xmlns="http://www.w3.org/2000/svg"
   xmlns:sodipodi="http://sodipodi.sourceforge.net/DTD/sodipodi-0.dtd"
   xmlns:inkscape="http://www.inkscape.org/namespaces/inkscape"
   width="30.48mm"
   height="128.5mm"
   viewBox="0 0 30.480002 128.50002"
   version="1.1"
   id="svg8"
   inkscape:version="1.0.2 (e86c8708, 2021-01-15)"
   sodipodi:docname="MyQuantizer.svg">
  <defs
     id="defs2" />
  <sodipodi:namedview
     id="base"
     pagecolor="#ffffff"
     bordercolor="#666666"
     borderopacity="1.0"
     inkscape:pageopacity="0.0"
     inkscape:pageshadow="2"
     inkscape:zoom="0.98994949"
     inkscape:cx="134.11093"
     inkscape:cy="213.40006"
     inkscape:document-units="mm"
     inkscape:current-layer="layer1"
     showgrid="false"
     units="mm"
     inkscape:snap-bbox="true"
     inkscape:snap-page="true"
     inkscape:bbox-nodes="false"
     inkscape:snap-bbox-edge-midpoints="false"
     inkscape:window-width="3440"
     inkscape:window-height="1395"
     inkscape:window-x="3440"
     inkscape:window-y="23"
     inkscape:window-maximized="1"
     inkscape:snap-bbox-midpoints="true"
     inkscape:snap-nodes="false"
     inkscape:document-rotation="0" />
  <metadata
     id="metadata5">
    <rdf:RDF>
      <cc:Work
         rdf:about="">
        <dc:format>image/svg+xml</dc:format>
        <dc:type
           rdf:resource="http://purl.org/dc/dcmitype/StillImage" />
        <dc:title />
      </cc:Work>
    </rdf:RDF>
  </metadata>
  <g
     inkscape:label="Layer 1"
     inkscape:groupmode="layer"
     id="layer1"
     transform="translate(0,-168.49998)"
     style="display:inline">
    <rect
       style="display:inline;opacity:1;vector-effect:none;fill:#e6e6e6;fill-opacity:1;fill-rule:evenodd;stroke:none;stroke-width:0.649358;stroke-linecap:butt;stroke-linejoin:miter;stroke-miterlimit:4;stroke-dasharray:none;stroke-dashoffset:0;stroke-opacity:1;paint-order:normal"
       id="rect420"
       width="30.48"
       height="128.5"
       x="5.9211732e-17"
       y="168.49997" />
    <g
       aria-label="Pitch"
       style="font-style:normal;font-variant:normal;font-weight:300;font-stretch:normal;font-size:4.93889px;line-height:6.61458px;font-family:'Gotham Rounded';-inkscape-font-specification:'Gotham Rounded Light';font-variant-ligatures:normal;font-variant-caps:normal;font-variant-numeric:normal;font-feature-settings:normal;text-align:center;letter-spacing:0px;word-spacing:0px;writing-mode:lr-tb;text-anchor:middle;display:inline;fill:#000000;fill-opacity:1;stroke:none;stroke-width:0.264583px;stroke-linecap:butt;stroke-linejoin:miter;stroke-opacity:1"
       id="text4944"
       transform="translate(0,10.583334)" />
    <g
       aria-label="Raga"
       id="text113-7"
       style="font-style:normal;font-weight:normal;font-size:3.88056px;line-height:0.95;font-family:sans-serif;display:inline;fill:#000000;fill-opacity:1;stroke:none;stroke-width:0.264583"
       transform="translate(0,2.6458334)">
      <path
         d="m 13.129234,196.84805 h -0.486965 l -0.943613,-1.12172 h -0.52865 v 1.12172 h -0.375172 v -2.82136 h 0.790134 q 0.255799,0 0.426331,0.0341 0.170532,0.0322 0.306958,0.11747 0.15348,0.0966 0.238746,0.24443 0.08716,0.1459 0.08716,0.37138 0,0.30507 -0.153479,0.5116 -0.15348,0.20464 -0.422542,0.30886 z m -0.877295,-2.02744 q 0,-0.12127 -0.04358,-0.21411 -0.04169,-0.0947 -0.140216,-0.15916 -0.08148,-0.0549 -0.19327,-0.0758 -0.111793,-0.0227 -0.263378,-0.0227 h -0.441489 v 1.06488 h 0.378961 q 0.178111,0 0.310748,-0.0303 0.132636,-0.0322 0.225481,-0.11748 0.08527,-0.0796 0.125058,-0.1819 0.04168,-0.10421 0.04168,-0.26338 z"
         style="font-size:3.88056px;stroke-width:0.264583"
         id="path82" />
      <path
         d="m 15.109305,196.84805 h -0.354329 v -0.22548 q -0.04737,0.0322 -0.128846,0.0909 -0.07958,0.0569 -0.155374,0.091 -0.08906,0.0436 -0.204639,0.072 -0.115583,0.0303 -0.270957,0.0303 -0.286116,0 -0.48507,-0.18948 -0.198955,-0.18948 -0.198955,-0.48317 0,-0.24064 0.10232,-0.38844 0.104214,-0.14969 0.295589,-0.23495 0.19327,-0.0853 0.464227,-0.11559 0.270957,-0.0303 0.581705,-0.0455 v -0.0549 q 0,-0.12127 -0.04358,-0.20085 -0.04169,-0.0796 -0.121268,-0.12506 -0.07579,-0.0436 -0.181901,-0.0587 -0.106109,-0.0152 -0.221692,-0.0152 -0.140216,0 -0.312643,0.0379 -0.172427,0.036 -0.356223,0.10611 h -0.01895 v -0.36191 q 0.104214,-0.0284 0.301274,-0.0625 0.197059,-0.0341 0.388435,-0.0341 0.223587,0 0.388435,0.0379 0.166742,0.036 0.28801,0.12506 0.119373,0.0872 0.181901,0.22548 0.06253,0.13832 0.06253,0.34296 z m -0.354329,-0.52107 v -0.58928 q -0.162953,0.009 -0.384645,0.0284 -0.219797,0.0189 -0.348644,0.0549 -0.153479,0.0436 -0.24822,0.13642 -0.09474,0.091 -0.09474,0.25201 0,0.18191 0.109899,0.27475 0.109899,0.0909 0.33538,0.0909 0.187586,0 0.34296,-0.072 0.155374,-0.0739 0.28801,-0.17622 z"
         style="font-size:3.88056px;stroke-width:0.264583"
         id="path84" />
      <path
         d="m 17.515707,196.60741 q 0,0.53813 -0.24443,0.79014 -0.24443,0.25201 -0.752237,0.25201 -0.168638,0 -0.329696,-0.0246 -0.159164,-0.0227 -0.314538,-0.0663 v -0.3638 h 0.01895 q 0.08716,0.0341 0.276641,0.0834 0.189481,0.0512 0.378961,0.0512 0.181902,0 0.301274,-0.0436 0.119373,-0.0436 0.185691,-0.12126 0.06632,-0.0739 0.09474,-0.17812 0.02842,-0.10421 0.02842,-0.23306 v -0.19327 q -0.161058,0.12885 -0.308853,0.19327 -0.1459,0.0625 -0.373276,0.0625 -0.378961,0 -0.602548,-0.27285 -0.221692,-0.27475 -0.221692,-0.77308 0,-0.27285 0.07579,-0.46991 0.07769,-0.19896 0.210323,-0.34296 0.123163,-0.13453 0.299379,-0.20843 0.176217,-0.0758 0.350539,-0.0758 0.183796,0 0.306959,0.0379 0.125057,0.036 0.263377,0.1118 l 0.02274,-0.0909 h 0.333486 z m -0.356224,-0.34106 v -1.15394 q -0.14211,-0.0644 -0.265272,-0.091 -0.121268,-0.0284 -0.242535,-0.0284 -0.293695,0 -0.462332,0.19706 -0.168638,0.19706 -0.168638,0.57223 0,0.35622 0.125057,0.54002 0.125057,0.1838 0.414962,0.1838 0.155374,0 0.310748,-0.0587 0.157269,-0.0606 0.28801,-0.16106 z"
         style="font-size:3.88056px;stroke-width:0.264583"
         id="path86" />
      <path
         d="m 19.861475,196.84805 h -0.354329 v -0.22548 q -0.04737,0.0322 -0.128847,0.0909 -0.07958,0.0569 -0.155374,0.091 -0.08905,0.0436 -0.204639,0.072 -0.115583,0.0303 -0.270957,0.0303 -0.286115,0 -0.48507,-0.18948 -0.198954,-0.18948 -0.198954,-0.48317 0,-0.24064 0.102319,-0.38844 0.104215,-0.14969 0.29559,-0.23495 0.19327,-0.0853 0.464227,-0.11559 0.270957,-0.0303 0.581705,-0.0455 v -0.0549 q 0,-0.12127 -0.04358,-0.20085 -0.04169,-0.0796 -0.121268,-0.12506 -0.07579,-0.0436 -0.181901,-0.0587 -0.106109,-0.0152 -0.221692,-0.0152 -0.140216,0 -0.312643,0.0379 -0.172427,0.036 -0.356223,0.10611 h -0.01895 v -0.36191 q 0.104214,-0.0284 0.301274,-0.0625 0.197059,-0.0341 0.388435,-0.0341 0.223586,0 0.388434,0.0379 0.166743,0.036 0.288011,0.12506 0.119372,0.0872 0.181901,0.22548 0.06253,0.13832 0.06253,0.34296 z m -0.354329,-0.52107 v -0.58928 q -0.162953,0.009 -0.384645,0.0284 -0.219798,0.0189 -0.348644,0.0549 -0.153479,0.0436 -0.24822,0.13642 -0.09474,0.091 -0.09474,0.25201 0,0.18191 0.109899,0.27475 0.109898,0.0909 0.33538,0.0909 0.187586,0 0.34296,-0.072 0.155374,-0.0739 0.28801,-0.17622 z"
         style="font-size:3.88056px;stroke-width:0.264583"
         id="path88" />
    </g>
    <g
       aria-label="Out"
       id="text113-1"
       style="font-style:normal;font-weight:normal;font-size:3.88056px;line-height:0.95;font-family:sans-serif;display:inline;fill:#000000;fill-opacity:1;stroke:none;stroke-width:0.264583">
      <path
         d="m 13.92536,284.62695 q 0.172427,0.18948 0.263378,0.46422 0.09284,0.27475 0.09284,0.62339 0,0.34865 -0.09474,0.62529 -0.09285,0.27475 -0.261483,0.45854 -0.174322,0.19138 -0.413068,0.28801 -0.23685,0.0966 -0.541914,0.0966 -0.297484,0 -0.541914,-0.0985 -0.242535,-0.0985 -0.413067,-0.28612 -0.170533,-0.18758 -0.263378,-0.46044 -0.09095,-0.27285 -0.09095,-0.62339 0,-0.34485 0.09095,-0.6177 0.09095,-0.27475 0.265273,-0.46991 0.166742,-0.1857 0.413067,-0.28423 0.248219,-0.0985 0.540019,-0.0985 0.303169,0 0.543809,0.10042 0.242535,0.0985 0.411173,0.28233 z m -0.03411,1.08761 q 0,-0.54949 -0.246324,-0.84697 -0.246325,-0.29938 -0.672656,-0.29938 -0.430121,0 -0.676445,0.29938 -0.24443,0.29748 -0.24443,0.84697 0,0.55518 0.250114,0.85077 0.250114,0.2937 0.670761,0.2937 0.420647,0 0.668866,-0.2937 0.250114,-0.29559 0.250114,-0.85077 z"
         style="font-size:3.88056px;stroke-width:0.264583"
         id="path98" />
      <path
         d="m 16.602719,287.1243 h -0.356224 v -0.23496 q -0.180006,0.14211 -0.344854,0.2179 -0.164848,0.0758 -0.363802,0.0758 -0.333486,0 -0.519177,-0.20275 -0.185691,-0.20464 -0.185691,-0.59876 v -1.37373 h 0.356223 v 1.2051 q 0,0.16106 0.01516,0.27664 0.01516,0.11369 0.06442,0.19516 0.05116,0.0834 0.132637,0.12127 0.08148,0.0379 0.23685,0.0379 0.138321,0 0.301274,-0.072 0.164848,-0.072 0.306958,-0.18379 v -1.58027 h 0.356224 z"
         style="font-size:3.88056px;stroke-width:0.264583"
         id="path100" />
      <path
         d="m 18.402783,287.10535 q -0.100425,0.0265 -0.219797,0.0436 -0.117478,0.017 -0.210324,0.017 -0.324011,0 -0.492649,-0.17432 -0.168637,-0.17432 -0.168637,-0.55897 v -1.12551 h -0.240641 v -0.29938 h 0.240641 v -0.60823 h 0.356223 v 0.60823 h 0.735184 v 0.29938 h -0.735184 v 0.96446 q 0,0.16674 0.0076,0.26148 0.0076,0.0928 0.05306,0.17432 0.04169,0.0758 0.113688,0.11179 0.0739,0.0341 0.223587,0.0341 0.08716,0 0.181901,-0.0246 0.09474,-0.0265 0.136426,-0.0436 h 0.01895 z"
         style="font-size:3.88056px;stroke-width:0.264583"
         id="path102" />
    </g>
    <g
       aria-label="ब्रह्म"
       id="text253"
       style="font-style:normal;font-weight:normal;font-size:10.5833px;line-height:1.25;font-family:sans-serif;fill:#000000;fill-opacity:1;stroke:none;stroke-width:0.264583">
      <path
         d="m 10.620142,179.45079 -1.8138374,1.30224 -0.511595,-0.59428 1.1472131,-0.76997 q -0.4547511,-0.22221 -0.8629937,-0.72864 -0.4082425,-0.51159 -0.4082425,-1.01802 0,-0.63045 0.692462,-1.04903 0.692462,-0.42374 1.2970745,-0.42374 0.258381,0 0.563271,0.13952 0.30489,0.13436 0.950843,0.69763 v -1.91719 H 7.6435886 v -0.7338 h 6.4130244 v 0.7338 h -1.570958 v 5.88076 h -0.10852 l -0.702798,-0.68729 v -1.36942 q -0.609779,0.40307 -1.054195,0.53743 z m 1.054195,-2.09289 q -0.485756,-0.47025 -1.012854,-0.47025 -0.516763,0 -1.00252,0.26871 l 1.229895,1.31258 q 0.532266,-0.27905 0.661456,-0.50643 0.134359,-0.23254 0.124023,-0.60461 z m -1.038693,1.2299 -1.2298947,-1.32292 q -0.7441382,0.37724 -0.7441382,0.863 0,0.28938 0.2738842,0.54777 0.2738842,0.25321 0.6304505,0.25321 0.387572,0 1.0696982,-0.34106 z m 1.850011,2.20657 z m 0,-6.43886 z m -2.408114,5.18313 z"
         style="stroke-width:0.264583"
         id="path1082" />
      <path
         d="m 22.836411,175.08931 h -1.560623 v 8.37673 H 21.07425 l -0.604612,-0.6718 v -1.9947 h -1.607132 v 0.88883 q 0,0.31006 -0.201537,0.31006 -0.19637,0 -0.899167,-0.75447 -0.69763,-0.74931 -0.69763,-1.00252 0,-0.1602 0.242879,-0.1602 h 1.291906 q -0.08268,-1.2609 -1.322912,-1.2609 -0.899167,0 -1.441768,0.50126 -0.542601,0.50126 -0.542601,1.31258 0,0.34106 0.134358,0.67696 0.139526,0.33589 0.387572,0.64078 0.248047,0.30489 1.421098,1.46761 l -0.160197,0.1757 q -1.364253,-1.34359 -1.76216,-1.80351 -0.397908,-0.45475 -0.568439,-0.84749 -0.170532,-0.38757 -0.170532,-0.75964 0,-0.925 0.899167,-1.63297 -0.976681,-1.07486 -0.976681,-1.57612 0,-0.3204 0.211872,-0.4961 0.211873,-0.1757 1.095537,-0.1757 h 2.098057 v -1.21439 h -3.994576 v -0.7338 h 8.929659 z m -2.366773,4.99193 v -4.99193 h -1.93786 l 0.124023,1.9482 h -2.992056 q -0.651121,0 -0.651121,0.33589 0,0.40308 0.676959,1.0387 0.516763,-0.31523 1.534786,-0.31523 0.780311,0 1.209224,0.53227 0.428913,0.53226 0.428913,1.4521 z m 0.80615,3.2246 z"
         style="stroke-width:0.264583"
         id="path1084" />
    </g>
    <g
       aria-label="In"
       id="text257"
       style="font-style:normal;font-variant:normal;font-weight:normal;font-stretch:normal;font-size:4.23333px;line-height:0.95;font-family:'Devanagari Sangam MN';-inkscape-font-specification:'Devanagari Sangam MN';fill:#000000;fill-opacity:1;stroke:none;stroke-width:0.264583">
      <path
         d="m 14.547536,256.96619 h -1.215429 v -0.3142 h 0.403076 v -2.44946 h -0.403076 v -0.31419 h 1.215429 v 0.31419 H 14.14446 v 2.44946 h 0.403076 z"
         style="font-style:normal;font-variant:normal;font-weight:normal;font-stretch:normal;font-size:4.23333px;font-family:sans-serif;-inkscape-font-specification:sans-serif;stroke-width:0.264583"
         id="path1087" />
      <path
         d="m 17.147892,256.96619 h -0.388607 v -1.31465 q 0,-0.15916 -0.0186,-0.29766 -0.0186,-0.14056 -0.06821,-0.2191 -0.05168,-0.0868 -0.148828,-0.12816 -0.09715,-0.0434 -0.252181,-0.0434 -0.159163,0 -0.332796,0.0786 -0.173632,0.0785 -0.332796,0.2005 v 1.72393 h -0.388606 v -2.3089 h 0.388606 v 0.25631 q 0.181901,-0.15089 0.376204,-0.23564 0.194304,-0.0848 0.398942,-0.0848 0.374137,0 0.570508,0.22531 0.19637,0.2253 0.19637,0.64905 z"
         style="font-style:normal;font-variant:normal;font-weight:normal;font-stretch:normal;font-size:4.23333px;font-family:sans-serif;-inkscape-font-specification:sans-serif;stroke-width:0.264583"
         id="path1089" />
    </g>
  </g>
  <g
     inkscape:groupmode="layer"
     id="layer2"
     inkscape:label="components"
     style="display:none">
    <circle
       style="display:inline;opacity:1;vector-effect:none;fill:#ff0000;fill-opacity:1;fill-rule:evenodd;stroke:none;stroke-width:1;stroke-linecap:butt;stroke-linejoin:miter;stroke-miterlimit:4;stroke-dasharray:none;stroke-dashoffset:0;stroke-opacity:1;paint-order:normal"
       id="path4954"
       cx="15.24"
       cy="46.063263"
       r="4"
       inkscape:label="pitch" />
    <circle
       r="4"
       cy="77.477875"
       cx="15.24"
       id="circle4956"
       style="display:inline;opacity:1;vector-effect:none;fill:#00ff00;fill-opacity:1;fill-rule:evenodd;stroke:none;stroke-width:1;stroke-linecap:butt;stroke-linejoin:miter;stroke-miterlimit:4;stroke-dasharray:none;stroke-dashoffset:0;stroke-opacity:1;paint-order:normal"
       inkscape:label="pitch" />
    <circle
       style="display:inline;opacity:1;vector-effect:none;fill:#0000ff;fill-opacity:1;fill-rule:evenodd;stroke:none;stroke-width:1;stroke-linecap:butt;stroke-linejoin:miter;stroke-miterlimit:4;stroke-dasharray:none;stroke-dashoffset:0;stroke-opacity:1;paint-order:normal"
       id="circle4958"
       cx="15.24"
       cy="108.71259"
       r="4"
       inkscape:label="sine" />
    <circle
       style="display:inline;opacity:1;vector-effect:none;fill:#ff0000;fill-opacity:1;fill-rule:evenodd;stroke:none;stroke-width:1;stroke-linecap:butt;stroke-linejoin:miter;stroke-miterlimit:4;stroke-dasharray:none;stroke-dashoffset:0;stroke-opacity:1;paint-order:normal"
       id="circle61"
       cx="15.24"
       cy="46.063263"
       r="4"
       inkscape:label="pitch" />
    <circle
       style="display:inline;vector-effect:none;fill:#ff0000;fill-opacity:1;fill-rule:evenodd;stroke:none;stroke-width:1;stroke-linecap:butt;stroke-linejoin:miter;stroke-miterlimit:4;stroke-dasharray:none;stroke-dashoffset:0;stroke-opacity:1;paint-order:normal"
       id="circle61-5"
       cx="15.234364"
       cy="19.16857"
       r="4"
       inkscape:label="pitch" />
  </g>
</svg>
